<?xml version="1.0" encoding="utf-8"?>
<!-- Generator: Adobe Illustrator 26.2.1, SVG Export Plug-In . SVG Version: 6.00 Build 0)  -->
<svg version="1.1" xmlns="http://www.w3.org/2000/svg" xmlns:xlink="http://www.w3.org/1999/xlink" x="0px" y="0px"
	 viewBox="0 0 121 40.6" style="enable-background:new 0 0 121 40.6;" xml:space="preserve">
<style type="text/css">
	.st0{display:none;}
	.st1{display:inline;fill-rule:evenodd;clip-rule:evenodd;fill:#0071BC;}
	.st2{display:inline;fill-rule:evenodd;clip-rule:evenodd;fill:#FFFFFF;enable-background:new    ;}
	.st3{display:inline;fill-rule:evenodd;clip-rule:evenodd;fill:#FFFFFF;}
	.st4{display:inline;}
	.st5{fill-rule:evenodd;clip-rule:evenodd;fill:#FFFFFF;}
	.st6{fill-rule:evenodd;clip-rule:evenodd;fill:#FFFFFF;filter:url(#Adobe_OpacityMaskFilter);}
	.st7{mask:url(#mask0_1_62_00000057832386348347190980000011280109993099936412_);}
	.st8{fill:#FFFFFF;enable-background:new    ;}
	.st9{fill:none;stroke:#FFFFFF;stroke-width:5;enable-background:new    ;}
	
		.st10{fill-rule:evenodd;clip-rule:evenodd;fill:#FFFFFF;filter:url(#Adobe_OpacityMaskFilter_00000107581957142266154120000008630355523617298589_);}
	.st11{mask:url(#path-1-inside-1_1_100_00000114071426264445108720000016931413677602664074_);fill:#FFFFFF;}
	.st12{fill:#FFFFFF;}
	.st13{display:inline;fill:#70777A;}
	.st14{clip-path:url(#SVGID_00000048474002336716363120000015821964516931123842_);}
	.st15{fill:#009BC9;}
	.st16{fill:#FFFFFF;filter:url(#Adobe_OpacityMaskFilter_00000080916400392655152280000000792021298654274466_);}
	.st17{mask:url(#mask0_1_174_00000089575092527666017150000000595935860268878242_);}
	.st18{opacity:0.1187;}
</style>
<g id="Layer_2" class="st0">
	<rect x="21.9" y="-178.9" class="st1" width="100" height="100"/>
</g>
<g id="Layer_1" class="st0">
	<path class="st2" d="M77.4-170.8c0-2.1,1.6-3.9,3.5-3.9h28.8c1.9,0,3.5,1.7,3.5,3.9v32.2c0,2.1-1.6,3.9-3.5,3.9H80.9
		c-1.9,0-3.5-1.7-3.5-3.9V-170.8z M34-174.7c-1.9,0-3.5,1.7-3.5,3.9v32.2c0,2.1,1.6,3.9,3.5,3.9h28.8c1.9,0,3.5-1.7,3.5-3.9v-32.2
		c0-2.1-1.6-3.9-3.5-3.9H34z M34-122.3c-1.9,0-3.5,1.7-3.5,3.9v32.2c0,2.1,1.6,3.9,3.5,3.9h28.8c1.9,0,3.5-1.7,3.5-3.9v-32.2
		c0-2.1-1.6-3.9-3.5-3.9H34z M80.9-122.3c-1.9,0-3.5,1.7-3.5,3.9v32.2c0,2.1,1.6,3.9,3.5,3.9h28.8c1.9,0,3.5-1.7,3.5-3.9v-32.2
		c0-2.1-1.6-3.9-3.5-3.9H80.9z M83.6-115.4h23.4v26.2H83.6V-115.4z M107.1-167.8H83.6v26.2h23.4V-167.8z M36.7-167.8h23.4v26.2H36.7
		V-167.8z M60.2-115.4H36.7v26.2h23.4V-115.4z"/>
</g>
<g id="Layer_3" class="st0">
	<path class="st3" d="M104.3-154.1v-16.3c0-1.1-0.5-2.1-1.4-2.7c-0.9-0.6-2-0.6-2.9,0c-0.2,0.2-25.4,15.8-42.5,15.8h-8.7h0
		c-5.5,0-10.6,2.7-14,7.4c-3.4,4.7-4.5,10.8-3.2,16.6c1.4,5.8,5.1,10.5,10.1,12.9l10,31.7c0.6,2.6,2.8,4.5,5.3,4.5
		c0.3,0,0.5,0,0.8-0.1c3.8-0.3,7.5-1.5,10.8-3.6c0.7-0.4,1.4-0.8,1.9-1.4c0.1-0.1,0.2-0.3,0.3-0.4c1.8-2.6,1.8-6.2,0.1-8.9
		c-1-1.8-3.6-8.7-4.1-19.1c16,3.6,33,14.5,33.2,14.6c0.9,0.6,2,0.6,2.9,0c0.9-0.6,1.4-1.6,1.4-2.7v-20.5c5.3-1.5,9-6.6,9-12.6v-2.6
		C113.3-147.4,109.6-152.6,104.3-154.1L104.3-154.1z M36.9-138.1c0-7.2,5.3-13,11.9-13h5.8v26.1h-5.8
		C42.2-125,36.9-130.9,36.9-138.1z M66.2-93.6l-0.4,0.2l-0.3,0.2c-0.7,0.5-3.3,2.2-8.4,2.7v-0.2l-8.9-28.1h9.2
		c1.1,0,2.3,0.1,3.4,0.2c0.3,12.2,3.4,20.6,5.1,23.4l0.1,0.1l0,0C66.4-94.6,66.5-94,66.2-93.6L66.2-93.6z M98.5-154.5v43.5
		c-7.6-4.4-23.9-12.8-38.2-13.9v-26.3c13.8-1.1,30.5-9.6,38.2-13.9V-154.5z M107.6-138.9c0,2.5-1.3,4.8-3.3,6v-14.6
		c2,1.2,3.3,3.5,3.3,6L107.6-138.9z"/>
</g>
<g id="Layer_4" class="st0">
	<g class="st4">
		<path class="st5" d="M79.8-170.3H63.6c-1.3,0-2.4,1.3-2.4,2.9v77.2c0,1.6,1.1,2.9,2.4,2.9h16.2c1.3,0,2.4-1.3,2.4-2.9v-77.2
			C82.3-169.1,81.2-170.3,79.8-170.3z M77.4-93.2H66v-28.9h11.3V-93.2z M77.4-127.9H66v-36.7h11.3V-127.9z M48.9-135.6H32.7
			c-1.3,0-2.4,1.3-2.4,2.9v42.4c0,1.6,1.1,2.9,2.4,2.9h16.2c1.3,0,2.4-1.3,2.4-2.9v-42.4C51.3-134.3,50.2-135.6,48.9-135.6z
			 M35.1-93.2h11.3v-9.6H35.1V-93.2z M46.4-108.6H35.1v-21.2h11.3V-108.6z M94.6-135.6h16.2c1.3,0,2.4,1.3,2.4,2.9v42.4
			c0,1.6-1.1,2.9-2.4,2.9H94.6c-1.3,0-2.4-1.3-2.4-2.9v-42.4C92.1-134.3,93.2-135.6,94.6-135.6z M108.3-93.2H97v-9.6h11.3V-93.2z
			 M97-108.6h11.3v-21.2H97V-108.6z"/>
		<defs>
			<filter id="Adobe_OpacityMaskFilter" filterUnits="userSpaceOnUse">
				<feColorMatrix  type="matrix" values="1 0 0 0 0  0 1 0 0 0  0 0 1 0 0  0 0 0 1 0"/>
			</filter>
		</defs>
		<mask maskUnits="userSpaceOnUse" id="mask0_1_62_00000057832386348347190980000011280109993099936412_">
			<path class="st6" d="M79.8-170.3H63.6c-1.3,0-2.4,1.3-2.4,2.9v77.2c0,1.6,1.1,2.9,2.4,2.9h16.2c1.3,0,2.4-1.3,2.4-2.9v-77.2
				C82.3-169.1,81.2-170.3,79.8-170.3z M77.4-93.2H66v-28.9h11.3V-93.2z M77.4-127.9H66v-36.7h11.3V-127.9z M48.9-135.6H32.7
				c-1.3,0-2.4,1.3-2.4,2.9v42.4c0,1.6,1.1,2.9,2.4,2.9h16.2c1.3,0,2.4-1.3,2.4-2.9v-42.4C51.3-134.3,50.2-135.6,48.9-135.6z
				 M35.1-93.2h11.3v-9.6H35.1V-93.2z M46.4-108.6H35.1v-21.2h11.3V-108.6z M94.6-135.6h16.2c1.3,0,2.4,1.3,2.4,2.9v42.4
				c0,1.6-1.1,2.9-2.4,2.9H94.6c-1.3,0-2.4-1.3-2.4-2.9v-42.4C92.1-134.3,93.2-135.6,94.6-135.6z M108.3-93.2H97v-9.6h11.3V-93.2z
				 M97-108.6h11.3v-21.2H97V-108.6z"/>
		</mask>
		<g class="st7">
		</g>
	</g>
	<path class="st3" d="M113.4-145.3c0-3.7-2.4-6.9-5.9-7.8l-33-8c-0.6-0.1-1.1-0.2-1.7-0.2s-1.1,0.1-1.7,0.2l-33,8
		c-3.5,0.8-5.9,4-5.9,7.8s2.4,6.9,5.9,7.8l6.8,1.6v22.5c0,7,7.7,13.3,27.9,13.3c20.2,0,27.9-6.2,27.9-13.3v-22.5l6.8-1.6
		C110.9-138.3,113.4-141.5,113.4-145.3L113.4-145.3z M95.6-113.4c0,2.9-7.6,8-22.9,8c-15.2,0-22.9-5-22.9-8v-21.2l21.2,5.1
		c0.6,0.1,1.1,0.2,1.7,0.2c0.6,0,1.1-0.1,1.7-0.2l21.1-5.1L95.6-113.4z M73.3-134.7c-0.2,0-0.4,0.1-0.6,0.1c-0.2,0-0.4,0-0.6-0.1
		l-33-8c-1.2-0.3-2-1.4-2-2.6s0.8-2.3,2-2.6l33-8c0.2,0,0.4-0.1,0.6-0.1c0.2,0,0.4,0,0.6,0.1l33,8c1.1,0.3,2,1.4,2,2.6
		s-0.8,2.3-2,2.6L73.3-134.7z M105.6-132.3v17.6c0,1.1,0.9,2,1.9,2s1.9-0.9,1.9-2v-17.6c0-1.1-0.9-2-1.9-2S105.6-133.4,105.6-132.3z
		 M103.7-101.3c0-2.6,1.7-9.6,3.9-9.6c2.1,0,3.9,6.9,3.9,9.6c0,2.6-1.7,4.8-3.9,4.8C105.4-96.5,103.7-98.7,103.7-101.3z"/>
</g>
<g id="Layer_6" class="st0">
</g>
<g id="Layer_5" class="st0">
	<g class="st4">
		<path class="st8" d="M84.5-140.7c1.2-1.4,3.3-1.6,4.7-0.4c1.5,1.2,1.7,3.2,0.5,4.6l-18.8,21.9c-0.6,0.7-1.4,1.1-2.4,1.2l-0.2,0
			c-0.8,0-1.6-0.3-2.2-0.9l-10.2-9.1c-0.8-0.5-1.3-1.4-1.4-2.3c-0.1-0.9,0.2-1.9,0.9-2.6c0.6-0.7,1.6-1.1,2.5-1.1c1,0,1.9,0.4,2.4,1
			l7.7,6.8L84.5-140.7z"/>
		<circle class="st9" cx="71.7" cy="-128.9" r="38.6"/>
	</g>
</g>
<g id="Layer_7" class="st0">
	<g class="st4">
		<defs>
			
				<filter id="Adobe_OpacityMaskFilter_00000165927341263635809230000001521865945540495535_" filterUnits="userSpaceOnUse" x="26.7" y="-177.5" width="92.5" height="99.6">
				<feColorMatrix  type="matrix" values="1 0 0 0 0  0 1 0 0 0  0 0 1 0 0  0 0 0 1 0"/>
			</filter>
		</defs>
		
			<mask maskUnits="userSpaceOnUse" x="26.7" y="-177.5" width="92.5" height="99.6" id="path-1-inside-1_1_100_00000114071426264445108720000016931413677602664074_">
			
				<path style="fill-rule:evenodd;clip-rule:evenodd;fill:#FFFFFF;filter:url(#Adobe_OpacityMaskFilter_00000165927341263635809230000001521865945540495535_);" d="
				M91.5-170c11.2,0,20.3,9.1,20.3,20.3l0,0c0,10.3-7.7,18.7-17.6,20.1v4.3c0,2.5,0.8,4.9,2.4,6.9l5,6.1c2.1,2.5,2.5,6,1.1,8.9
				c-1.3,2.9-4.3,4.8-7.6,4.8H82.7c-0.3,7.4-6.3,13.4-13.8,13.4c-7.5,0-13.6-6-13.8-13.4H42.6c-3.2,0-6.2-1.9-7.6-4.8
				c-1.4-2.9-1-6.3,1.1-8.9l5-6.1c1.5-2,2.4-4.4,2.4-6.9v-6.6c0-10.3,6.2-19.4,15.5-23.3v-2.2c0-4.3,3.5-7.7,7.7-7.7h4.5
				c2.1,0,3.8,0.8,5.2,2.1C80-167.4,85.4-170,91.5-170z M106-149.8c0-8-6.6-14.6-14.6-14.6c-8,0-14.6,6.6-14.6,14.6
				c0,8,6.6,14.6,14.6,14.6C99.4-135.2,106-141.8,106-149.8z M60.7-98.7c0.2,4.4,3.7,7.8,8.1,7.8l0,0c4.4,0,7.9-3.5,8.2-7.8H60.7z
				 M97.7-105.9c0.2-0.4,0.7-1.7-0.4-2.9l-5.1-6c-2.3-2.9-3.7-6.7-3.7-10.4v-4.4c-9.8-1.4-17.4-9.9-17.4-20.1c0-2.9,0.6-5.7,1.8-8.3
				c-0.2-0.9-1-1.5-1.9-1.5h-4.5c-1.1,0-2,0.9-2,2v4.2c0,1.2-0.8,2.3-2,2.7c-8.1,2.7-13.6,10.2-13.6,18.7v6.6
				c0,3.8-1.3,7.5-3.7,10.4l-5,6.1c-1.1,1.3-0.5,2.6-0.4,2.9c0.2,0.4,0.9,1.6,2.5,1.6l52.5,0C96.8-104.3,97.5-105.5,97.7-105.9z
				 M94.4-153.3v-1.2v-2.5c0-1.5-1.2-2.9-2.9-2.9c-1.5,0-2.9,1.2-2.9,2.9v2.5v1.2v0.6H88h-1.1h-2.5c-1.5,0-2.9,1.2-2.9,2.9
				c0,1.6,1.2,2.9,2.9,2.9h2.5H88h0.6v0.6v1.2v2.5c0,1.5,1.2,2.9,2.9,2.9c1.5,0,2.9-1.2,2.9-2.9v-2.5v-1.2v-0.6H95h1.2h2.5
				c1.5,0,2.9-1.2,2.9-2.9c0-1.5-1.2-2.9-2.9-2.9h-2.5H95h-0.6V-153.3z"/>
		</mask>
		<path class="st11" d="M111.7-149.8l6.2,4.1l1.2-1.9v-2.2H111.7z M111.7-149.8l-6.2-4.1l-1.2,1.9v2.2H111.7z M94.2-129.7l-1-7.4
			l-6.5,0.9v6.5H94.2z M96.6-118.6l-5.8,4.7l0,0L96.6-118.6z M101.6-112.5l5.8-4.8l0,0L101.6-112.5z M102.6-103.6l-6.7-3.3l0,0.1
			l0,0.1L102.6-103.6z M82.7-98.8v-7.5h-7.2L75.2-99L82.7-98.8z M55-98.8l7.5-0.3l-0.3-7.2H55V-98.8z M35-103.6l6.7-3.3l0,0
			L35-103.6z M36.1-112.5l-5.8-4.8l0,0.1l0,0.1L36.1-112.5z M41.1-118.6l5.8,4.8l0.1-0.1L47-114L41.1-118.6z M59-155.3l2.9,6.9
			l4.6-1.9v-5H59z M76.3-163.2l-5.1,5.5l5.7,5.3l5.1-5.8L76.3-163.2z M60.7-98.7v-7.5h-7.8l0.3,7.8L60.7-98.7z M77-98.7l7.5,0.5
			l0.5-7.9h-8V-98.7z M97.3-108.8l-5.7,4.8l0,0L97.3-108.8z M97.7-105.9l-6.7-3.4l0,0L97.7-105.9z M92.2-114.8l-5.9,4.6l0.1,0.1
			l0.1,0.1L92.2-114.8z M88.6-129.6H96v-6.5l-6.4-0.9L88.6-129.6z M72.9-158l6.8,3.1l1-2.2l-0.5-2.4L72.9-158z M62.7-150.7l-2.2-7.2
			l-0.1,0l-0.1,0L62.7-150.7z M45.5-114.9l5.8,4.8l0,0L45.5-114.9z M40.5-108.8l5.7,4.9l0-0.1l0-0.1L40.5-108.8z M40.1-105.9
			l6.7-3.3l0,0L40.1-105.9z M42.6-104.3l0-7.5h0V-104.3z M95.2-104.3l0,7.5h0V-104.3z M88.6-152.6v7.5h7.5v-7.5H88.6z M88.6-146.9
			h7.5v-7.5h-7.5V-146.9z M94.4-146.9v-7.5h-7.5v7.5H94.4z M94.4-152.6h-7.5v7.5h7.5V-152.6z M119.2-149.8
			c0-15.3-12.5-27.7-27.7-27.7v15c7,0,12.8,5.7,12.8,12.8H119.2z M118-145.7L118-145.7l-12.5-8.3l0,0L118-145.7z M95.2-122.3
			c13.5-1.8,24.1-13.4,24.1-27.5h-15c0,6.4-4.8,11.8-11.1,12.7L95.2-122.3z M101.7-125.4v-4.3h-15v4.3H101.7z M102.4-123.3
			c-0.4-0.5-0.7-1.2-0.7-2.1h-15c0,4.1,1.3,8.2,4.1,11.6L102.4-123.3z M107.4-117.3l-5-6.1l-11.6,9.5l5,6.1L107.4-117.3z
			 M109.4-100.3c2.7-5.6,1.9-12.2-2-16.9l-11.6,9.5c0.2,0.3,0.3,0.6,0.1,0.9L109.4-100.3z M95.1-91.3c6.2,0,11.8-3.5,14.4-9.2
			l-13.6-6.2c-0.1,0.2-0.3,0.4-0.8,0.4V-91.3z M82.7-91.3h12.4v-15H82.7V-91.3z M68.8-77.9c11.6,0,20.9-9.2,21.3-20.6l-15-0.5
			c-0.1,3.4-2.9,6.2-6.3,6.2V-77.9z M47.5-98.5c0.4,11.4,9.7,20.6,21.3,20.6v-15c-3.4,0-6.2-2.7-6.3-6.2L47.5-98.5z M42.6-91.3H55
			v-15H42.6V-91.3z M28.3-100.3c2.6,5.5,8.2,9,14.3,9v-15c-0.3,0-0.6-0.2-0.8-0.6L28.3-100.3z M30.2-117.2
			c-3.7,4.7-4.7,11.2-1.9,16.8l13.5-6.5c-0.1-0.2-0.1-0.3-0.1-0.4c0-0.1,0.1-0.3,0.3-0.6L30.2-117.2z M35.3-123.3l-5,6.1l11.6,9.5
			l5-6.1L35.3-123.3z M36-125.4c0,0.7-0.3,1.5-0.8,2.3L47-114c2.4-3.2,4-7.2,4-11.4H36z M36-132v6.6h15v-6.6H36z M56.1-162.2
			C44-157.2,36-145.3,36-132h15c0-7.2,4.3-13.6,10.9-16.4L56.1-162.2z M51.5-157.6v2.2h15v-2.2H51.5z M66.7-172.7
			c-8.3,0-15.2,6.7-15.2,15.2h15c0,0,0-0.1,0-0.1c0,0,0,0,0-0.1c0,0,0,0,0.1,0c0,0,0,0,0.1,0V-172.7z M71.2-172.7h-4.5v15h4.5
			V-172.7z M81.4-168.7c-2.6-2.4-6.2-4.1-10.3-4.1v15c0,0,0,0,0,0c0,0,0,0,0,0c0,0,0,0,0.1,0L81.4-168.7z M91.5-177.5
			c-8.3,0-15.8,3.7-20.8,9.4l11.3,9.8c2.3-2.6,5.7-4.3,9.5-4.3V-177.5z M91.4-156.9c3.9,0,7.1,3.2,7.1,7.1h15
			c0-12.2-10-22.1-22.1-22.1V-156.9z M84.3-149.8c0-3.9,3.2-7.1,7.1-7.1v-15c-12.2,0-22.1,10-22.1,22.1H84.3z M91.4-142.7
			c-3.9,0-7.1-3.2-7.1-7.1h-15c0,12.2,10,22.1,22.1,22.1V-142.7z M98.5-149.8c0,3.9-3.2,7.1-7.1,7.1v15c12.2,0,22.1-10,22.1-22.1
			H98.5z M68.8-98.4c-0.2,0-0.4-0.1-0.5-0.2c-0.1-0.1-0.2-0.2-0.2-0.4l-15,0.6c0.3,8.4,7.3,14.9,15.6,14.9V-98.4z M68.8-98.4
			L68.8-98.4v15l0,0V-98.4z M69.6-99.1c0,0.2-0.1,0.4-0.3,0.5c-0.2,0.1-0.3,0.2-0.5,0.2v15c8.4,0,15.2-6.7,15.7-14.8L69.6-99.1z
			 M60.7-91.2H77v-15H60.7V-91.2z M91.6-104c-0.9-1-1.2-2.3-1.2-3.4c0-0.9,0.3-1.5,0.5-1.9l13.4,6.7c0.6-1.1,2.8-6.4-1.4-11.2
			L91.6-104z M86.5-110l5.1,6l11.4-9.7l-5.1-6L86.5-110z M81.1-125.3c0,5.5,1.9,10.8,5.3,15.1l11.8-9.3c-1.3-1.7-2.1-3.8-2.1-5.8
			H81.1z M81.1-129.6v4.4h15v-4.4H81.1z M63.7-149.7c0,14,10.4,25.5,23.8,27.5l2.2-14.8c-6.2-0.9-11-6.3-11-12.7H63.7z M66.1-161.1
			c-1.6,3.5-2.4,7.3-2.4,11.4h15c0-1.9,0.4-3.6,1.1-5.2L66.1-161.1z M71.1-152c-2.5,0-4.9-1.7-5.5-4.5l14.7-3
			c-0.9-4.5-4.9-7.5-9.2-7.5V-152z M66.6-152h4.5v-15h-4.5V-152z M72.1-157.6c0,3.1-2.5,5.5-5.5,5.5v-15c-5.2,0-9.4,4.2-9.4,9.4
			H72.1z M72.1-153.4v-4.2h-15v4.2H72.1z M64.9-143.5c4.3-1.3,7.3-5.3,7.3-9.8h-15c0-2,1.3-3.9,3.3-4.5L64.9-143.5z M56.6-132
			c0-5.3,3.4-10,8.4-11.6l-4.7-14.2c-11.2,3.7-18.7,14-18.7,25.8H56.6z M56.6-125.4v-6.6h-15v6.6H56.6z M51.3-110.2
			c3.6-4.3,5.4-9.7,5.4-15.2h-15c0,2.2-0.7,4.2-2,5.7L51.3-110.2z M46.2-104.1l5-6.1l-11.6-9.5l-5,6.1L46.2-104.1z M46.8-109.2
			c0.2,0.4,0.5,1,0.5,1.9c0,1.1-0.3,2.4-1.1,3.4l-11.4-9.7c-4.1,4.8-1.9,10.1-1.4,11.2L46.8-109.2z M42.6-111.8
			c1.3,0,2.5,0.6,3.2,1.2c0.6,0.5,0.9,1.1,1,1.3l-13.4,6.6c0.4,0.9,3,5.8,9.2,5.8V-111.8z M95.2-111.8l-52.5,0l0,15l52.5,0
			L95.2-111.8z M91-109.2c0.1-0.2,0.4-0.8,1-1.3c0.7-0.6,1.8-1.2,3.2-1.2v15c6.2,0,8.8-4.9,9.2-5.7L91-109.2z M86.9-154.4v1.2h15
			v-1.2H86.9z M86.9-156.9v2.5h15v-2.5H86.9z M91.5-152.3c-2.7,0-4.6-2.2-4.6-4.6h15c0-5.5-4.4-10.3-10.3-10.3V-152.3z M96.1-156.9
			c0,2.7-2.2,4.6-4.6,4.6v-15c-5.5,0-10.3,4.4-10.3,10.3H96.1z M96.1-154.4v-2.5h-15v2.5H96.1z M96.1-153.3v-1.2h-15v1.2H96.1z
			 M96.1-152.6v-0.6h-15v0.6H96.1z M88-145.2h0.7v-15H88V-145.2z M86.9-145.2H88v-15h-1.1V-145.2z M84.4-145.2h2.5v-15h-2.5V-145.2z
			 M89-149.8c0,2.7-2.2,4.6-4.6,4.6v-15c-5.5,0-10.3,4.4-10.3,10.3H89z M84.4-154.4c2.5,0,4.6,2.1,4.6,4.6H74
			c0,5.7,4.6,10.3,10.3,10.3V-154.4z M86.9-154.4h-2.5v15h2.5V-154.4z M88-154.4h-1.2v15H88V-154.4z M88.6-154.4H88v15h0.6V-154.4z
			 M96.1-146.3v-0.6h-15v0.6H96.1z M96.1-145.2v-1.2h-15v1.2H96.1z M96.1-142.7v-2.5h-15v2.5H96.1z M91.5-147.3
			c2.7,0,4.6,2.2,4.6,4.6h-15c0,5.5,4.4,10.3,10.3,10.3V-147.3z M86.9-142.7c0-2.7,2.2-4.6,4.6-4.6v15c5.5,0,10.3-4.4,10.3-10.3
			H86.9z M86.9-145.2v2.5h15v-2.5H86.9z M86.9-146.3v1.2h15v-1.2H86.9z M86.9-146.9v0.6h15v-0.6H86.9z M95-154.4h-0.6v15H95V-154.4z
			 M96.1-154.4H95v15h1.2V-154.4z M98.6-154.4h-2.5v15h2.5V-154.4z M94-149.8c0-2.7,2.2-4.6,4.6-4.6v15c5.5,0,10.3-4.4,10.3-10.3H94
			z M98.6-145.2c-2.7,0-4.6-2.2-4.6-4.6h15c0-5.5-4.4-10.3-10.3-10.3V-145.2z M96.1-145.2h2.5v-15h-2.5V-145.2z M95-145.2h1.2v-15
			H95V-145.2z M94.4-145.2H95v-15h-0.6V-145.2z M86.9-153.3v0.6h15v-0.6H86.9z"/>
	</g>
</g>
<g id="Layer_8" class="st0">
	<g class="st4">
		<path class="st5" d="M81.9-172c-4.3,0-8,2.2-10.3,5.4c-2.1-2.2-5.1-3.7-8.4-3.7c-6.4,0-11.6,5.2-11.6,11.6c0,2.3,0.7,4.4,1.8,6.2
			H34.8c-1.4,0-2.7,1.3-2.7,2.7v16c0,1.4,1.3,2.7,2.7,2.7h2.7v36.5c0,1.4,1.3,2.7,2.7,2.7h64c1.4,0,2.7-1.3,2.7-2.7v-36.5h2.7
			c1.4,0,2.7-1.3,2.7-2.7v-16c0-1.4-1.3-2.7-2.7-2.7H92.1c1.4-2,2.3-4.5,2.3-7.1C94.4-166.4,88.7-172,81.9-172L81.9-172z
			 M81.9-166.7c4,0,7.1,3.2,7.1,7.1s-3.2,7.1-7.1,7.1h-7.1v-7.1C74.8-163.6,77.9-166.7,81.9-166.7z M63.2-164.9
			c3.5,0,6.2,2.8,6.2,6.2v6.2h-6.2c-3.5,0-6.2-2.8-6.2-6.2S59.8-164.9,63.2-164.9z M37.5-147.2h32v10.7h-32V-147.2z M74.8-147.2h32
			v10.7h-32V-147.2z M42.8-131.1h26.7v33.8H42.8V-131.1z M74.8-131.1h26.7v33.8H74.8V-131.1z"/>
	</g>
</g>
<g id="Layer_9" class="st0">
	<g class="st4">
		<path class="st12" d="M100.7-120.9v8.4h8.8c2.1,0,3.8,1.6,3.8,3.6c0,2-1.7,3.6-3.8,3.6h-8.8v8.4c0,2-1.7,3.6-3.8,3.6
			c-2.1,0-3.8-1.6-3.8-3.6v-8.4h-8.8c-2.1,0-3.8-1.6-3.8-3.6c0-2,1.7-3.6,3.8-3.6h8.8v-8.4c0-2,1.7-3.6,3.8-3.6
			C99-124.6,100.7-123,100.7-120.9z"/>
		<path class="st12" d="M111-144.2c1.5,1.7,2.2,3.8,2.2,5.9c0.1,2.3-0.9,4.8-2.9,6.6l-1.8,1.6c-1.5,1.4-3.9,1.4-5.3,0
			c-1.5-1.4-1.4-3.7,0.1-5.1l1.8-1.6c0.5-0.5,0.6-0.9,0.7-1.4c0-0.5-0.2-1-0.6-1.3c-0.3-0.4-0.7-0.6-1.4-0.7L85.1-143
			c-1.2-0.2-2.3-0.9-2.8-2l-8.4-16.4c-0.5-0.8-1.2-1.2-2-1.2c-0.9,0-1.5,0.3-2,1.1v0L61.6-145c-0.6,1.1-1.6,1.8-2.8,2L40-140.4
			c-0.7,0.1-1.1,0.3-1.4,0.7c-0.3,0.3-0.5,0.9-0.5,1.3c0.1,0.5,0.2,1,0.7,1.4l13.6,12.8c0.9,0.8,1.3,2,1.1,3.2l-3.2,18v0l-0.1,0.4
			c0,0.5,0.2,1,0.7,1.4c0.4,0.4,1,0.6,1.5,0.6l1.1-0.3l15.8-8c1.9-0.9,4.1-0.2,5.1,1.5c1,1.7,0.3,3.9-1.6,4.9l-15.8,8
			c-1.5,0.7-3,1.1-4.6,1.1c-2.6,0-5-1-6.7-2.6c-1.8-1.6-2.9-4-2.9-6.6c0-0.6,0.1-1.1,0.2-1.6v0l2.9-16.1l-12.2-11.5
			c-2-1.8-3-4.3-3-6.6c0-2.2,0.8-4.2,2.2-5.9c1.5-1.7,3.6-3,6.1-3.3l16.8-2.3l7.6-14.7c1.8-3.4,5.3-5.2,8.7-5.2h0.2
			c3.3,0,6.8,1.8,8.5,5.2l7.5,14.7l16.8,2.3C107.4-147.2,109.6-145.9,111-144.2L111-144.2z"/>
	</g>
	<g id="nlwoxF.tif" class="st4">
		
			<image style="overflow:visible;" width="86" height="87" id="Layer_0_00000083807275905256726260000006424433288788670634_" xlink:href="9E6314ADC3F652DE.png"  transform="matrix(1 0 0 1 28.908 -172.353)">
		</image>
	</g>
</g>
<g id="Layer_10" class="st0">
	<path class="st13" d="M118-134.5c-1.5-11.5-7.3-22.1-16.2-29.6c-8.9-7.5-20.3-11.4-31.9-10.9c-11.6,0.5-22.6,5.4-30.9,13.6
		c-8.2,8.2-13.1,19.2-13.6,30.9c-0.5,11.6,3.4,23,10.9,31.9c7.5,8.9,18,14.7,29.6,16.2c14.3,1.9,28.7-3,38.9-13.2
		C115-105.8,119.9-120.2,118-134.5z M78.6-106.4c0,3.7-3,6.6-6.6,6.6c-3.7,0-6.6-3-6.6-6.6v-19.9c0-3.7,3-6.6,6.6-6.6
		c3.7,0,6.6,3,6.6,6.6V-106.4z M71.9-143.9c-2.7,0-5.1-1.6-6.1-4.1c-1-2.5-0.5-5.3,1.4-7.2c1.9-1.9,4.8-2.5,7.2-1.4
		c2.5,1,4.1,3.5,4.1,6.1c0,1.8-0.7,3.5-1.9,4.7C75.4-144.6,73.7-143.9,71.9-143.9L71.9-143.9z"/>
</g>
<g id="Layer_11">
	<path class="st5" d="M26.4-128.9c0-25.1,20.4-45.5,45.5-45.5s45.5,20.4,45.5,45.5S97-83.3,71.9-83.3S26.4-103.7,26.4-128.9z
		 M33.5-128.9c0,21.2,17.3,38.4,38.4,38.4s38.4-17.3,38.4-38.4s-17.3-38.4-38.4-38.4S33.5-150,33.5-128.9z M64.9-146l22.1,14.8
		c1.7,1.1,1.7,3.6,0,4.8l-22.1,14.8c-1.8,1.2-4.4-0.1-4.4-2.4v-29.5C60.5-145.9,63-147.3,64.9-146z"/>
	<g>
		<defs>
			<rect id="SVGID_1_" width="121" height="40.6"/>
		</defs>
		<clipPath id="SVGID_00000146480831384279846630000004320559432332669112_">
			<use xlink:href="#SVGID_1_"  style="overflow:visible;"/>
		</clipPath>
		<g style="clip-path:url(#SVGID_00000146480831384279846630000004320559432332669112_);">
			<path class="st15" d="M19.4,0.5h82.1c10.7,0,19.4,8.7,19.4,19.4v0.5c0,10.7-8.7,19.4-19.4,19.4H19.4C8.7,39.8,0,31.1,0,20.4v-0.5
				C0,9.2,8.7,0.5,19.4,0.5z"/>
			<defs>
				
					<filter id="Adobe_OpacityMaskFilter_00000079473820804708421350000015055356334432189568_" filterUnits="userSpaceOnUse" x="-1.2" y="-6.3" width="54.2" height="52.9">
					<feColorMatrix  type="matrix" values="1 0 0 0 0  0 1 0 0 0  0 0 1 0 0  0 0 0 1 0"/>
				</filter>
			</defs>
			
				<mask maskUnits="userSpaceOnUse" x="-1.2" y="-6.3" width="54.2" height="52.9" id="mask0_1_174_00000089575092527666017150000000595935860268878242_">
				<path style="fill:#FFFFFF;filter:url(#Adobe_OpacityMaskFilter_00000079473820804708421350000015055356334432189568_);" d="
					M19.4,0.5h82.1c10.7,0,19.4,8.7,19.4,19.4v0.5c0,10.7-8.7,19.4-19.4,19.4H19.4C8.7,39.8,0,31.1,0,20.4v-0.5
					C0,9.2,8.7,0.5,19.4,0.5z"/>
			</mask>
			<g class="st17">
				<g class="st18">
					<path class="st5" d="M3.5,44.4c0,1.2,1,2.2,2.3,2.2h12.7V20.7h-15V44.4z"/>
					<path class="st5" d="M33.4,46.6h12.7c1.3,0,2.3-1,2.3-2.2V20.7h-15V46.6z"/>
					<path class="st5" d="M-1.2,10.5V14c0,1.2,1.1,2.2,2.4,2.2h17.2l0-7.9H1.2C-0.1,8.3-1.2,9.3-1.2,10.5L-1.2,10.5z"/>
					<path class="st5" d="M50.6,8.3H33.4v7.9h17.2c1.3,0,2.4-1,2.4-2.2v-3.5C52.9,9.3,51.9,8.3,50.6,8.3L50.6,8.3z"/>
					<path class="st5" d="M20.7,8.3H30v38.2h-9.2V8.3z"/>
					<path class="st5" d="M16.6,6.1h18.5c1.9,0,3.8-0.8,5-2.4c1.2-1.5,1.6-3.5,1.1-5.3c-0.5-2.1-2.1-3.7-4.2-4.3
						c-2.1-0.7-4.3-0.2-6,1.1l-5.2,4.4l-5.2-4.3C19-6.2,16.8-6.6,14.8-6c-2.1,0.7-3.7,2.3-4.2,4.3c-0.5,1.9-0.1,3.8,1.1,5.3
						C12.9,5.2,14.7,6.1,16.6,6.1L16.6,6.1z M34-1.4c0.6-0.6,1.4-0.4,1.6-0.3c0.3,0.1,0.9,0.4,1.1,1.2c0.1,0.5,0,1-0.3,1.5
						c-0.3,0.4-0.8,0.7-1.4,0.7h-4.6L34-1.4z M15-0.6c0.2-0.8,0.9-1.1,1.1-1.2c0.1-0.1,0.3-0.1,0.5-0.1c0.3,0,0.7,0.1,1.1,0.4l3.5,3
						h-4.6c-0.5,0-1-0.2-1.4-0.7C15,0.5,14.9,0,15-0.6L15-0.6z"/>
				</g>
			</g>
			<path class="st12" d="M47.5,16.6v3.3h4v1.2h-4v4.2H46v-9.9h6.2v1.2H47.5z M57.6,21c0-0.3,0-0.5-0.1-0.7c-0.1-0.2-0.2-0.4-0.3-0.6
				c-0.1-0.2-0.3-0.3-0.5-0.4c-0.2-0.1-0.5-0.1-0.7-0.1c-0.6,0-1,0.2-1.3,0.5C54.2,20,54,20.5,53.9,21H57.6z M58.7,24.3
				c-0.2,0.2-0.4,0.4-0.6,0.5c-0.2,0.1-0.4,0.3-0.7,0.3c-0.2,0.1-0.5,0.2-0.8,0.2c-0.3,0-0.5,0.1-0.8,0.1c-0.5,0-0.9-0.1-1.3-0.2
				c-0.4-0.2-0.8-0.4-1.1-0.7c-0.3-0.3-0.5-0.7-0.7-1.2c-0.2-0.5-0.2-1-0.2-1.6c0-0.5,0.1-0.9,0.2-1.4c0.2-0.4,0.4-0.8,0.6-1.1
				c0.3-0.3,0.6-0.6,1-0.7c0.4-0.2,0.9-0.3,1.4-0.3c0.4,0,0.8,0.1,1.2,0.2c0.4,0.1,0.7,0.3,0.9,0.6c0.3,0.3,0.5,0.6,0.6,1
				c0.2,0.4,0.2,0.8,0.2,1.3c0,0.2,0,0.3-0.1,0.4c0,0.1-0.1,0.1-0.3,0.1h-4.6c0,0.4,0.1,0.8,0.2,1.1c0.1,0.3,0.3,0.6,0.4,0.8
				c0.2,0.2,0.4,0.4,0.7,0.5c0.3,0.1,0.5,0.2,0.9,0.2c0.3,0,0.6,0,0.8-0.1c0.2-0.1,0.4-0.1,0.6-0.2c0.2-0.1,0.3-0.2,0.4-0.2
				c0.1-0.1,0.2-0.1,0.3-0.1c0.1,0,0.2,0,0.3,0.1L58.7,24.3z M64,22.2c-0.5,0-1,0.1-1.4,0.1c-0.4,0.1-0.7,0.2-0.9,0.3
				c-0.2,0.1-0.4,0.2-0.5,0.4c-0.1,0.1-0.2,0.3-0.2,0.5c0,0.2,0,0.3,0.1,0.5c0.1,0.1,0.1,0.2,0.2,0.3c0.1,0.1,0.2,0.1,0.4,0.2
				c0.1,0,0.3,0.1,0.4,0.1c0.2,0,0.4,0,0.6-0.1c0.2,0,0.3-0.1,0.5-0.2c0.2-0.1,0.3-0.2,0.4-0.3c0.1-0.1,0.3-0.2,0.4-0.4V22.2z
				 M60.1,19.3c0.4-0.4,0.8-0.7,1.3-0.8c0.5-0.2,1-0.3,1.5-0.3c0.4,0,0.8,0.1,1.1,0.2c0.3,0.1,0.6,0.3,0.8,0.5
				c0.2,0.2,0.4,0.5,0.5,0.8c0.1,0.3,0.2,0.7,0.2,1.1v4.5h-0.6c-0.1,0-0.2,0-0.3-0.1c-0.1,0-0.1-0.1-0.2-0.2l-0.1-0.6
				c-0.2,0.2-0.4,0.3-0.5,0.4c-0.2,0.1-0.4,0.2-0.6,0.3c-0.2,0.1-0.4,0.2-0.6,0.2c-0.2,0-0.5,0.1-0.7,0.1c-0.3,0-0.5,0-0.8-0.1
				c-0.2-0.1-0.4-0.2-0.6-0.4c-0.2-0.2-0.3-0.4-0.4-0.6c-0.1-0.2-0.2-0.5-0.2-0.8c0-0.3,0.1-0.5,0.2-0.8c0.2-0.3,0.4-0.5,0.7-0.7
				c0.3-0.2,0.8-0.4,1.3-0.5c0.5-0.1,1.2-0.2,2-0.2v-0.5c0-0.5-0.1-0.9-0.3-1.2c-0.2-0.3-0.6-0.4-1-0.4c-0.3,0-0.5,0-0.7,0.1
				c-0.2,0.1-0.4,0.2-0.5,0.2c-0.1,0.1-0.3,0.2-0.4,0.2C60.9,20,60.8,20,60.7,20c-0.1,0-0.2,0-0.2-0.1c-0.1-0.1-0.1-0.1-0.2-0.2
				L60.1,19.3z M69.2,25.5c-0.6,0-1-0.2-1.3-0.5c-0.3-0.3-0.5-0.8-0.5-1.4v-4.2h-0.8c-0.1,0-0.1,0-0.2-0.1c-0.1-0.1-0.1-0.1-0.1-0.2
				v-0.5l1.1-0.2l0.3-2.1c0-0.1,0.1-0.1,0.1-0.2c0.1,0,0.1-0.1,0.2-0.1h0.7v2.4h2v1h-2v4.1c0,0.3,0.1,0.5,0.2,0.6
				c0.1,0.1,0.3,0.2,0.5,0.2c0.1,0,0.2,0,0.3,0c0.1,0,0.2-0.1,0.2-0.1c0.1,0,0.1-0.1,0.2-0.1c0,0,0.1,0,0.1,0c0,0,0.1,0,0.1,0
				c0,0,0.1,0.1,0.1,0.1l0.4,0.6c-0.2,0.2-0.5,0.4-0.8,0.5C69.9,25.4,69.6,25.5,69.2,25.5z M77.9,18.3v7h-0.8
				c-0.2,0-0.3-0.1-0.4-0.3l-0.1-0.7c-0.2,0.2-0.3,0.3-0.5,0.4c-0.2,0.1-0.3,0.2-0.5,0.3c-0.2,0.1-0.4,0.2-0.6,0.2
				c-0.2,0.1-0.4,0.1-0.7,0.1c-0.4,0-0.7-0.1-1-0.2c-0.3-0.1-0.5-0.3-0.7-0.5c-0.2-0.2-0.3-0.5-0.4-0.8C72,23.5,72,23.2,72,22.8
				v-4.5h1.4v4.5c0,0.5,0.1,0.9,0.3,1.2c0.2,0.3,0.6,0.4,1.1,0.4c0.3,0,0.7-0.1,1-0.2c0.3-0.2,0.6-0.4,0.8-0.7v-5.1H77.9z M81,19.7
				c0.2-0.5,0.5-0.8,0.8-1.1c0.3-0.3,0.7-0.4,1.1-0.4c0.2,0,0.3,0,0.4,0.1c0.1,0,0.3,0.1,0.4,0.2l-0.1,1c0,0.1-0.1,0.2-0.2,0.2
				c-0.1,0-0.2,0-0.3,0c-0.1,0-0.3,0-0.4,0c-0.2,0-0.4,0-0.6,0.1c-0.2,0.1-0.3,0.2-0.4,0.3c-0.1,0.1-0.2,0.3-0.3,0.4
				c-0.1,0.2-0.2,0.4-0.3,0.6v4.4h-1.3v-7h0.8c0.1,0,0.2,0,0.3,0.1c0.1,0.1,0.1,0.1,0.1,0.3L81,19.7z M89.2,21c0-0.3,0-0.5-0.1-0.7
				c-0.1-0.2-0.2-0.4-0.3-0.6c-0.1-0.2-0.3-0.3-0.5-0.4c-0.2-0.1-0.5-0.1-0.7-0.1c-0.6,0-1,0.2-1.3,0.5c-0.3,0.3-0.5,0.8-0.6,1.4
				H89.2z M90.3,24.3c-0.2,0.2-0.4,0.4-0.6,0.5c-0.2,0.1-0.4,0.3-0.7,0.3c-0.2,0.1-0.5,0.2-0.8,0.2c-0.3,0-0.5,0.1-0.8,0.1
				c-0.5,0-0.9-0.1-1.3-0.2c-0.4-0.2-0.8-0.4-1.1-0.7c-0.3-0.3-0.5-0.7-0.7-1.2c-0.2-0.5-0.2-1-0.2-1.6c0-0.5,0.1-0.9,0.2-1.4
				c0.2-0.4,0.4-0.8,0.7-1.1c0.3-0.3,0.6-0.6,1-0.7c0.4-0.2,0.9-0.3,1.4-0.3c0.4,0,0.8,0.1,1.2,0.2c0.4,0.1,0.7,0.3,0.9,0.6
				c0.3,0.3,0.5,0.6,0.6,1c0.2,0.4,0.2,0.8,0.2,1.3c0,0.2,0,0.3-0.1,0.4c0,0.1-0.1,0.1-0.3,0.1h-4.6c0,0.4,0.1,0.8,0.2,1.1
				c0.1,0.3,0.3,0.6,0.4,0.8c0.2,0.2,0.4,0.4,0.7,0.5c0.3,0.1,0.5,0.2,0.9,0.2c0.3,0,0.6,0,0.8-0.1c0.2-0.1,0.4-0.1,0.6-0.2
				c0.2-0.1,0.3-0.2,0.4-0.2c0.1-0.1,0.2-0.1,0.3-0.1c0.1,0,0.2,0,0.3,0.1L90.3,24.3z M96.4,20c-0.2-0.3-0.5-0.5-0.7-0.6
				c-0.3-0.1-0.5-0.2-0.9-0.2c-0.6,0-1.1,0.2-1.4,0.7c-0.3,0.4-0.5,1.1-0.5,1.9c0,0.4,0,0.8,0.1,1.1c0.1,0.3,0.2,0.6,0.3,0.8
				c0.1,0.2,0.3,0.3,0.5,0.4c0.2,0.1,0.5,0.1,0.7,0.1c0.4,0,0.7-0.1,1-0.3c0.3-0.2,0.6-0.4,0.8-0.7V20z M97.8,15.1v10.2H97
				c-0.2,0-0.3-0.1-0.4-0.3l-0.1-0.8c-0.3,0.4-0.6,0.6-1,0.9c-0.4,0.2-0.8,0.3-1.3,0.3c-0.4,0-0.8-0.1-1.1-0.2
				c-0.3-0.2-0.6-0.4-0.8-0.7c-0.2-0.3-0.4-0.7-0.5-1.1c-0.1-0.4-0.2-1-0.2-1.5c0-0.5,0.1-1,0.2-1.5c0.1-0.4,0.3-0.8,0.6-1.2
				c0.3-0.3,0.6-0.6,1-0.8c0.4-0.2,0.8-0.3,1.3-0.3c0.4,0,0.8,0.1,1.1,0.2c0.3,0.1,0.6,0.3,0.8,0.6v-3.8H97.8z"/>
			<path class="st5" d="M18.6,26.7c0,0.4,0.3,0.7,0.7,0.7h4v-8h-4.8V26.7z"/>
			<path class="st5" d="M28.4,27.4h4c0.4,0,0.7-0.3,0.7-0.7v-7.3h-4.8V27.4z"/>
			<path class="st5" d="M17.3,16.5v1.1c0,0.4,0.3,0.7,0.7,0.7h5.4l0-2.5H18C17.6,15.8,17.3,16.1,17.3,16.5L17.3,16.5z"/>
			<path class="st5" d="M33.8,15.8h-5.4v2.5h5.4c0.4,0,0.7-0.3,0.7-0.7v-1.1C34.6,16.1,34.2,15.8,33.8,15.8L33.8,15.8z"/>
			<path class="st5" d="M24.5,15.8h2.8v11.5h-2.8V15.8z"/>
			<path class="st5" d="M22.9,14.9h6c0.6,0,1.2-0.3,1.6-0.7c0.4-0.5,0.5-1.1,0.4-1.6c-0.2-0.6-0.7-1.1-1.3-1.3
				c-0.7-0.2-1.4-0.1-1.9,0.3L25.9,13l-1.7-1.3c-0.5-0.4-1.2-0.6-1.9-0.4c-0.7,0.2-1.2,0.7-1.3,1.3c-0.2,0.6,0,1.2,0.4,1.6
				C21.7,14.7,22.3,14.9,22.9,14.9L22.9,14.9z M28.5,12.7c0.2-0.2,0.4-0.1,0.5-0.1c0.1,0,0.3,0.1,0.4,0.4c0,0.2,0,0.3-0.1,0.4
				c-0.1,0.1-0.3,0.2-0.4,0.2h-1.5L28.5,12.7z M22.4,12.9c0.1-0.3,0.3-0.3,0.4-0.4c0,0,0.1,0,0.2,0c0.1,0,0.2,0,0.3,0.1l1.1,0.9
				h-1.5c-0.2,0-0.3-0.1-0.4-0.2C22.4,13.2,22.4,13.1,22.4,12.9L22.4,12.9z"/>
		</g>
	</g>
</g>
</svg>
