<?xml version="1.0" encoding="utf-8"?>
<!-- Generator: Adobe Illustrator 26.2.1, SVG Export Plug-In . SVG Version: 6.00 Build 0)  -->
<svg version="1.1" xmlns="http://www.w3.org/2000/svg" xmlns:xlink="http://www.w3.org/1999/xlink" x="0px" y="0px"
	 viewBox="0 0 40 40" style="enable-background:new 0 0 40 40;" xml:space="preserve">
<style type="text/css">
	.st0{display:none;}
	.st1{display:inline;fill:#009BC9;}
	.st2{display:inline;fill:#5B717C;}
	.st3{fill-rule:evenodd;clip-rule:evenodd;fill:#009BC9;}
	.st4{fill:#009BC9;}
</style>
<g id="Layer_1" class="st0">
	<path class="st1" d="M20.8,21.2C20.6,21,20.4,21,20.2,21s-0.5,0.1-0.7,0.2c-0.1,0.1-3.2,2.2-3.2,5.5c0,1,0.4,2,1.1,2.7
		c0.7,0.7,1.7,1.1,2.7,1.1c1,0,2-0.4,2.7-1.1c0.7-0.7,1.1-1.7,1.1-2.7C24,23.4,21,21.3,20.8,21.2z M20.2,28.1
		c-0.4,0-0.8-0.2-1.1-0.4c-0.3-0.3-0.4-0.7-0.4-1.1c0.1-1.1,0.6-2.2,1.5-2.9c0.9,0.7,1.4,1.8,1.5,2.9c0,0.4-0.2,0.8-0.4,1.1
		C20.9,28,20.6,28.1,20.2,28.1z M27.8,15.3c-0.7-1.7-2-3.1-3.6-4c-1.6-0.9-3.4-1.2-5.2-1c-1.8,0.3-3.5,1.1-4.8,2.4
		c-1.3,1.3-2.1,3-2.3,4.8c-1.1,0.3-2.1,0.9-2.7,1.8c-0.7,0.9-1,2-0.9,3.2c0.1,1.1,0.6,2.2,1.4,3c0.8,0.8,1.9,1.3,3,1.4h0.1
		c0.3,0,0.6-0.1,0.8-0.3c0.2-0.2,0.4-0.5,0.4-0.8c0-0.2,0-0.3-0.1-0.5c0-0.1-0.1-0.3-0.2-0.4c-0.1-0.1-0.2-0.2-0.4-0.3
		c-0.1-0.1-0.3-0.1-0.5-0.1c-0.6-0.1-1.1-0.3-1.6-0.8c-0.4-0.4-0.6-1-0.6-1.6c0-0.6,0.3-1.2,0.7-1.7c0.4-0.4,1.1-0.7,1.7-0.7
		c0.3,0,0.6-0.1,0.8-0.3c0.2-0.2,0.3-0.5,0.3-0.8c0-1.4,0.5-2.8,1.4-3.9s2.2-1.8,3.6-2c1.4-0.2,2.8,0,4,0.8c1.2,0.7,2.1,1.9,2.6,3.2
		c0.1,0.2,0.2,0.4,0.4,0.5c0.2,0.1,0.4,0.2,0.6,0.3c0.8,0.1,1.5,0.5,2,1.1c0.5,0.6,0.8,1.3,0.9,2.1c0.1,0.8-0.1,1.6-0.6,2.2
		c-0.4,0.7-1.1,1.2-1.8,1.4c-0.3,0.1-0.5,0.3-0.7,0.6c-0.1,0.3-0.2,0.6-0.1,0.9c0.1,0.3,0.3,0.5,0.6,0.7c0.3,0.1,0.6,0.2,0.9,0.1
		c1.2-0.4,2.2-1.2,3-2.2c0.7-1,1.1-2.3,1.1-3.5c0-1.3-0.4-2.5-1.2-3.5C30.1,16.4,29,15.6,27.8,15.3z"/>
</g>
<g id="Layer_2" class="st0">
	<path class="st2" d="M30.3,28.6c0.4,0.4,0.4,1.1,0,1.6c-0.4,0.4-1.1,0.4-1.6,0l-5.4-5.4c-0.2-0.2-0.6-0.2-0.8-0.1
		c0,0-0.2,0.1-0.5,0.3c-1.2,0.7-2.6,1.1-4.1,1.1c-4.6,0-8.3-3.7-8.3-8.3c0-4.6,3.7-8.3,8.3-8.3c4.6,0,8.3,3.7,8.3,8.3
		c0,1.5-0.4,2.9-1.1,4.1c-0.2,0.3-0.3,0.4-0.3,0.4c-0.2,0.3-0.1,0.6,0.1,0.8L30.3,28.6z M18,23.9c3.4,0,6.1-2.7,6.1-6.1
		c0-3.4-2.7-6.1-6.1-6.1s-6.1,2.7-6.1,6.1C11.9,21.1,14.6,23.9,18,23.9z"/>
</g>
<g id="Layer_3" class="st0">
	<path class="st2" d="M18.4,27c0.1,0.9,0.8,1.6,1.7,1.6c0.9,0,1.6-0.7,1.7-1.6H18.4z M23.9,27c-0.1,2-1.7,3.5-3.7,3.5
		c-2,0-3.6-1.5-3.7-3.5h-4.9c-1,0-1.8-0.8-1.8-1.8v-0.4c0-1.4,1-2.6,2.3-2.9v-4.5c0-4.4,3.6-8,8-8c4.4,0,8,3.6,8,8V22
		c1.3,0.3,2.3,1.4,2.3,2.9v0.4c0,1-0.8,1.8-1.8,1.8H23.9z M28.5,24.9c0-0.5-0.4-1-1-1c-0.8,0-1.4-0.6-1.4-1.4v-5.1c0-3.3-2.7-6-6-6
		c-3.3,0-6,2.7-6,6v5.1c0,0.7-0.6,1.4-1.4,1.4c-0.5,0-1,0.4-1,1v0.2h16.7V24.9z"/>
</g>
<g id="Layer_4">
	<path class="st3" d="M6.7,11c2.8-5.5,8.5-8.9,14.7-8.8c8.9-0.1,16.3,7,16.4,15.9c-0.2,8.8-7.4,15.8-16.2,15.8
		c-0.4,0-0.7-0.2-0.9-0.5c-0.2-0.3-0.2-0.6,0-0.9c0.2-0.3,0.5-0.5,0.9-0.5c7.7,0,14-6.2,14.2-13.9c-0.1-3.8-1.6-7.4-4.3-10
		c-2.7-2.6-6.3-4.1-10.1-4c-4.9,0-9.5,2.4-12.2,6.4L7,13.8l3.8-1.8c0.3-0.2,0.7-0.2,1,0c0.3,0.2,0.5,0.5,0.5,0.9
		c0,0.4-0.3,0.7-0.6,0.8l-5.2,2.6c-0.5,0.2-1,0-1.3-0.4l-2.9-5.1c-0.2-0.3-0.2-0.6,0-0.9c0.2-0.3,0.5-0.5,0.9-0.5
		c0.4,0,0.7,0.2,0.9,0.5l1.6,2.8L6.7,11z M22.6,17.5l4.9,3.8c0.2,0.2,0.4,0.4,0.4,0.7c0,0.2-0.1,0.5-0.2,0.7c-0.4,0.4-1,0.5-1.4,0.1
		L21,18.8c-0.2-0.2-0.4-0.5-0.4-0.7V9.8c0-0.3,0.1-0.5,0.3-0.7c0.2-0.2,0.4-0.3,0.7-0.3c0.3,0,0.5,0.1,0.7,0.3
		c0.2,0.2,0.3,0.5,0.3,0.7V17.5z"/>
	<path class="st4" d="M21.4,2.1l0,0.6l0,0L21.4,2.1z M6.7,11l0.5,0.3l0,0L6.7,11z M37.8,18.1l0.6,0l0,0L37.8,18.1z M21.6,33.9l0-0.6
		l0,0L21.6,33.9z M20.7,33.4l-0.5,0.3l0,0L20.7,33.4z M20.7,32.5l-0.5-0.3l0,0L20.7,32.5z M21.6,31.9l0-0.6l0,0L21.6,31.9z
		 M35.8,18.1l0.6,0l0,0L35.8,18.1z M31.5,8.1l0.4-0.4L31.5,8.1z M21.4,4.1l0,0.6l0,0L21.4,4.1z M9.2,10.5l-0.5-0.3l0,0L9.2,10.5z
		 M7,13.8l-0.5-0.3l-1.2,1.9l2-1L7,13.8z M10.8,12l0.3,0.6l0,0l0,0L10.8,12z M11.9,12l-0.3,0.5l0,0L11.9,12z M12.3,12.9l0.6,0.1l0,0
		L12.3,12.9z M11.7,13.7l-0.2-0.6l0,0l0,0L11.7,13.7z M6.5,16.3l0.3,0.6l0,0L6.5,16.3z M5.2,15.9l-0.5,0.3l0,0L5.2,15.9z M2.3,10.8
		l0.5-0.3l0,0L2.3,10.8z M2.3,9.9l0.5,0.3l0,0L2.3,9.9z M3.2,9.4l0-0.6l0,0L3.2,9.4z M4.1,9.9l-0.5,0.3l0,0L4.1,9.9z M5.7,12.8
		l-0.5,0.3l0.6,1l0.5-1L5.7,12.8z M27.5,21.4l-0.4,0.5l0,0l0,0L27.5,21.4z M22.6,17.5H22v0.3l0.2,0.2L22.6,17.5z M27.9,22.1l-0.6,0
		l0,0L27.9,22.1z M27.7,22.8l0.5,0.4l0,0L27.7,22.8z M26.3,22.9l0.4-0.5l0,0L26.3,22.9z M21,18.8l0.4-0.5l0,0L21,18.8z M20.6,9.8
		h0.6l0,0L20.6,9.8z M20.9,9.1l-0.4-0.4l0,0L20.9,9.1z M21.6,8.8l0,0.6l0,0L21.6,8.8z M22.6,9.8l-0.6,0v0H22.6z M21.4,1.5
		C15,1.5,9.1,5,6.1,10.7l1.1,0.6C9.9,6,15.4,2.7,21.4,2.8L21.4,1.5z M38.4,18.1C38.3,8.8,30.6,1.4,21.4,1.5l0,1.2
		C30,2.6,37.1,9.5,37.2,18.1L38.4,18.1z M21.6,34.5c9.1,0,16.6-7.3,16.8-16.4l-1.2,0c-0.2,8.5-7.1,15.2-15.6,15.2L21.6,34.5z
		 M20.2,33.7c0.3,0.5,0.9,0.8,1.4,0.7l0-1.2c-0.1,0-0.3-0.1-0.3-0.2L20.2,33.7z M20.2,32.1c-0.3,0.5-0.3,1.1,0,1.6l1.1-0.6
		c-0.1-0.1-0.1-0.2,0-0.3L20.2,32.1z M21.6,31.3c-0.6,0-1.1,0.3-1.4,0.8l1.1,0.6c0.1-0.1,0.2-0.2,0.3-0.2L21.6,31.3z M35.2,18.1
		C35,25.4,29,31.3,21.6,31.3l0,1.2c8.1,0,14.7-6.4,14.9-14.5L35.2,18.1z M31.1,8.5c2.6,2.5,4.1,6,4.1,9.6l1.2,0
		c-0.1-3.9-1.7-7.7-4.5-10.4L31.1,8.5z M21.4,4.7C25,4.6,28.5,6,31.1,8.5l0.9-0.9c-2.8-2.7-6.6-4.2-10.6-4.2L21.4,4.7z M9.7,10.9
		c2.6-3.9,7-6.2,11.7-6.2l0-1.2c-5.1,0-9.9,2.5-12.7,6.7L9.7,10.9z M7.5,14.2l2.2-3.3l-1-0.7l-2.2,3.3L7.5,14.2z M10.5,11.5
		l-3.8,1.8l0.5,1.1l3.8-1.8L10.5,11.5z M12.2,11.5c-0.5-0.3-1.2-0.3-1.7,0l0.6,1.1c0.1-0.1,0.3-0.1,0.4,0L12.2,11.5z M12.9,12.9
		c0-0.6-0.2-1.1-0.8-1.4l-0.6,1.1c0.1,0.1,0.2,0.2,0.2,0.3L12.9,12.9z M11.9,14.3c0.6-0.2,1-0.7,1-1.3l-1.2-0.1
		c0,0.1-0.1,0.2-0.2,0.3L11.9,14.3z M6.8,16.8l5.2-2.6l-0.6-1.1l-5.2,2.6L6.8,16.8z M4.7,16.2c0.4,0.7,1.3,1,2.1,0.6l-0.5-1.1
		c-0.2,0.1-0.4,0-0.5-0.2L4.7,16.2z M1.8,11.1l2.9,5.1l1.1-0.6l-2.9-5.1L1.8,11.1z M1.8,9.6c-0.3,0.5-0.3,1.1,0,1.6l1.1-0.6
		c-0.1-0.1-0.1-0.2,0-0.3L1.8,9.6z M3.2,8.8c-0.6,0-1.1,0.3-1.4,0.8l1.1,0.6C2.9,10.1,3,10,3.2,10L3.2,8.8z M4.6,9.6
		C4.3,9.1,3.8,8.8,3.2,8.8l0,1.2c0.2,0,0.3,0.1,0.4,0.2L4.6,9.6z M6.3,12.4L4.6,9.6l-1.1,0.6l1.6,2.8L6.3,12.4z M6.1,10.7l-0.9,1.8
		L6.3,13l0.9-1.8L6.1,10.7z M27.8,20.9L23,17.1l-0.8,1l4.9,3.8L27.8,20.9z M28.5,22c0-0.5-0.3-0.9-0.7-1.2l-0.7,1
		c0.1,0.1,0.1,0.1,0.1,0.2L28.5,22z M28.2,23.2c0.3-0.3,0.4-0.7,0.3-1.1l-1.2,0.1c0,0.1,0,0.2-0.1,0.2L28.2,23.2z M25.9,23.4
		c0.7,0.6,1.7,0.4,2.3-0.2l-0.9-0.8c-0.1,0.2-0.4,0.2-0.6,0.1L25.9,23.4z M20.6,19.3l5.3,4.1l0.8-1l-5.3-4.1L20.6,19.3z M20,18.1
		c0,0.5,0.2,0.9,0.6,1.2l0.7-1c-0.1-0.1-0.1-0.2-0.1-0.2H20z M20,9.8v8.3h1.2V9.8H20z M20.4,8.6C20.1,8.9,20,9.3,20,9.8l1.2,0
		c0-0.1,0-0.2,0.1-0.2L20.4,8.6z M21.5,8.2c-0.4,0-0.8,0.2-1.1,0.5l0.9,0.9c0.1-0.1,0.2-0.1,0.3-0.1L21.5,8.2z M22.7,8.6
		c-0.3-0.3-0.7-0.5-1.2-0.5l0.1,1.2c0.1,0,0.2,0,0.3,0.1L22.7,8.6z M23.2,9.8c0-0.4-0.2-0.9-0.5-1.2l-0.9,0.9
		C21.9,9.6,22,9.7,22,9.8L23.2,9.8z M23.2,17.5V9.8H22v7.8H23.2z"/>
</g>
</svg>
