<?xml version="1.0" encoding="utf-8"?>
<!-- Generator: Adobe Illustrator 26.2.1, SVG Export Plug-In . SVG Version: 6.00 Build 0)  -->
<svg version="1.1" xmlns="http://www.w3.org/2000/svg" xmlns:xlink="http://www.w3.org/1999/xlink" x="0px" y="0px"
	 viewBox="0 0 100 100" style="enable-background:new 0 0 100 100;" xml:space="preserve">
<style type="text/css">
	.st0{display:none;}
	.st1{display:inline;fill-rule:evenodd;clip-rule:evenodd;fill:#0071BC;}
	.st2{fill-rule:evenodd;clip-rule:evenodd;fill:#FFFFFF;enable-background:new    ;}
	.st3{display:inline;fill-rule:evenodd;clip-rule:evenodd;fill:#FFFFFF;fill-opacity:0.6;}
	.st4{display:inline;opacity:0.6;}
	.st5{fill-rule:evenodd;clip-rule:evenodd;fill:#FFFFFF;}
	.st6{fill-rule:evenodd;clip-rule:evenodd;fill:#FFFFFF;filter:url(#Adobe_OpacityMaskFilter);}
	.st7{mask:url(#mask0_1_62_00000057832386348347190980000011280109993099936412_);}
	.st8{display:inline;fill-rule:evenodd;clip-rule:evenodd;fill:#FFFFFF;}
</style>
<g id="Layer_2" class="st0">
	<rect y="0" class="st1" width="100" height="100"/>
</g>
<g id="Layer_1">
	<path class="st2" d="M55.5,8.1c0-2.1,1.6-3.9,3.5-3.9h28.8c1.9,0,3.5,1.7,3.5,3.9v32.2c0,2.1-1.6,3.9-3.5,3.9H59
		c-1.9,0-3.5-1.7-3.5-3.9V8.1z M12.1,4.2c-1.9,0-3.5,1.7-3.5,3.9v32.2c0,2.1,1.6,3.9,3.5,3.9H41c1.9,0,3.5-1.7,3.5-3.9V8.1
		c0-2.1-1.6-3.9-3.5-3.9H12.1z M12.1,56.5c-1.9,0-3.5,1.7-3.5,3.9v32.2c0,2.1,1.6,3.9,3.5,3.9H41c1.9,0,3.5-1.7,3.5-3.9V60.4
		c0-2.1-1.6-3.9-3.5-3.9H12.1z M59,56.5c-1.9,0-3.5,1.7-3.5,3.9v32.2c0,2.1,1.6,3.9,3.5,3.9h28.8c1.9,0,3.5-1.7,3.5-3.9V60.4
		c0-2.1-1.6-3.9-3.5-3.9H59z M61.7,63.4h23.4v26.2H61.7V63.4z M85.2,11.1H61.7v26.2h23.4V11.1z M14.8,11.1h23.4v26.2H14.8V11.1z
		 M38.3,63.4H14.8v26.2h23.4V63.4z"/>
</g>
<g id="Layer_3" class="st0">
	<path class="st3" d="M82.4,24.8V8.5c0-1.1-0.5-2.1-1.4-2.7c-0.9-0.6-2-0.6-2.9,0c-0.2,0.2-25.4,15.8-42.5,15.8h-8.7h0
		c-5.5,0-10.6,2.7-14,7.4c-3.4,4.7-4.5,10.8-3.2,16.6c1.4,5.8,5.1,10.5,10.1,12.9l10,31.7c0.6,2.6,2.8,4.5,5.3,4.5
		c0.3,0,0.5,0,0.8-0.1c3.8-0.3,7.5-1.5,10.8-3.6c0.7-0.4,1.4-0.8,1.9-1.4c0.1-0.1,0.2-0.3,0.3-0.4c1.8-2.6,1.8-6.2,0.1-8.9
		c-1-1.8-3.6-8.7-4.1-19.1c16,3.6,33,14.5,33.2,14.6c0.9,0.6,2,0.6,2.9,0c0.9-0.6,1.4-1.6,1.4-2.7V52.6c5.3-1.5,9-6.6,9-12.6v-2.6
		C91.4,31.4,87.7,26.2,82.4,24.8L82.4,24.8z M15,40.8c0-7.2,5.3-13,11.9-13h5.8v26.1h-5.8C20.3,53.8,15,48,15,40.8z M44.3,85.3
		L44,85.5l-0.3,0.2c-0.7,0.5-3.3,2.2-8.4,2.7v-0.2l-8.9-28.1h9.2c1.1,0,2.3,0.1,3.4,0.2c0.3,12.2,3.4,20.6,5.1,23.4l0.1,0.1l0,0
		C44.5,84.2,44.6,84.8,44.3,85.3L44.3,85.3z M76.6,24.4v43.5C69,63.4,52.7,55,38.4,54V27.6c13.8-1.1,30.5-9.6,38.2-13.9V24.4z
		 M85.7,40c0,2.5-1.3,4.8-3.3,6V31.4c2,1.2,3.3,3.5,3.3,6L85.7,40z"/>
</g>
<g id="Layer_4" class="st0">
	<g class="st4">
		<path class="st5" d="M57.9,8.5H41.7c-1.3,0-2.4,1.3-2.4,2.9v77.2c0,1.6,1.1,2.9,2.4,2.9h16.2c1.3,0,2.4-1.3,2.4-2.9V11.4
			C60.3,9.8,59.3,8.5,57.9,8.5z M55.5,85.7H44.1V56.7h11.3V85.7z M55.5,50.9H44.1V14.3h11.3V50.9z M27,43.2H10.8
			c-1.3,0-2.4,1.3-2.4,2.9v42.4c0,1.6,1.1,2.9,2.4,2.9H27c1.3,0,2.4-1.3,2.4-2.9V46.1C29.4,44.5,28.3,43.2,27,43.2z M13.2,85.7h11.3
			V76H13.2V85.7z M24.5,70.2H13.2V49h11.3V70.2z M72.7,43.2h16.2c1.3,0,2.4,1.3,2.4,2.9v42.4c0,1.6-1.1,2.9-2.4,2.9H72.7
			c-1.3,0-2.4-1.3-2.4-2.9V46.1C70.2,44.5,71.3,43.2,72.7,43.2z M86.4,85.7H75.1V76h11.3V85.7z M75.1,70.2h11.3V49H75.1V70.2z"/>
		<defs>
			<filter id="Adobe_OpacityMaskFilter" filterUnits="userSpaceOnUse">
				<feColorMatrix  type="matrix" values="1 0 0 0 0  0 1 0 0 0  0 0 1 0 0  0 0 0 1 0"/>
			</filter>
		</defs>
		<mask maskUnits="userSpaceOnUse" id="mask0_1_62_00000057832386348347190980000011280109993099936412_">
			<path class="st6" d="M57.9,8.5H41.7c-1.3,0-2.4,1.3-2.4,2.9v77.2c0,1.6,1.1,2.9,2.4,2.9h16.2c1.3,0,2.4-1.3,2.4-2.9V11.4
				C60.3,9.8,59.3,8.5,57.9,8.5z M55.5,85.7H44.1V56.7h11.3V85.7z M55.5,50.9H44.1V14.3h11.3V50.9z M27,43.2H10.8
				c-1.3,0-2.4,1.3-2.4,2.9v42.4c0,1.6,1.1,2.9,2.4,2.9H27c1.3,0,2.4-1.3,2.4-2.9V46.1C29.4,44.5,28.3,43.2,27,43.2z M13.2,85.7
				h11.3V76H13.2V85.7z M24.5,70.2H13.2V49h11.3V70.2z M72.7,43.2h16.2c1.3,0,2.4,1.3,2.4,2.9v42.4c0,1.6-1.1,2.9-2.4,2.9H72.7
				c-1.3,0-2.4-1.3-2.4-2.9V46.1C70.2,44.5,71.3,43.2,72.7,43.2z M86.4,85.7H75.1V76h11.3V85.7z M75.1,70.2h11.3V49H75.1V70.2z"/>
		</mask>
		<g class="st7">
		</g>
	</g>
</g>
<g id="Layer_5" class="st0">
	<path class="st8" d="M91.4,33.6c0-3.7-2.4-6.9-5.9-7.8l-33-8c-0.6-0.1-1.1-0.2-1.7-0.2s-1.1,0.1-1.7,0.2l-33,8
		c-3.5,0.8-5.9,4-5.9,7.8s2.4,6.9,5.9,7.8l6.8,1.6v22.5c0,7,7.7,13.3,27.9,13.3c20.2,0,27.9-6.2,27.9-13.3V43l6.8-1.6
		C89,40.5,91.4,37.3,91.4,33.6L91.4,33.6z M73.7,65.4c0,2.9-7.6,8-22.9,8c-15.2,0-22.9-5-22.9-8V44.2l21.2,5.1
		c0.6,0.1,1.1,0.2,1.7,0.2s1.1-0.1,1.7-0.2l21.1-5.1L73.7,65.4z M51.4,44.1c-0.2,0-0.4,0.1-0.6,0.1c-0.2,0-0.4,0-0.6-0.1l-33-8
		c-1.2-0.3-2-1.4-2-2.6c0-1.2,0.8-2.3,2-2.6l33-8c0.2,0,0.4-0.1,0.6-0.1c0.2,0,0.4,0,0.6,0.1l33,8c1.1,0.3,2,1.4,2,2.6
		c0,1.2-0.8,2.3-2,2.6L51.4,44.1z M83.7,46.6v17.6c0,1.1,0.9,2,1.9,2s1.9-0.9,1.9-2V46.6c0-1.1-0.9-2-1.9-2S83.7,45.5,83.7,46.6z
		 M81.8,77.5c0-2.6,1.7-9.6,3.9-9.6c2.1,0,3.9,6.9,3.9,9.6c0,2.6-1.7,4.8-3.9,4.8C83.5,82.3,81.8,80.2,81.8,77.5z"/>
</g>
</svg>
