<?xml version="1.0" encoding="utf-8"?>
<!-- Generator: Adobe Illustrator 26.2.1, SVG Export Plug-In . SVG Version: 6.00 Build 0)  -->
<svg version="1.1" xmlns="http://www.w3.org/2000/svg" xmlns:xlink="http://www.w3.org/1999/xlink" x="0px" y="0px"
	 viewBox="0 0 100 100" style="enable-background:new 0 0 100 100;" xml:space="preserve">
<style type="text/css">
	.st0{display:none;}
	.st1{display:inline;fill-rule:evenodd;clip-rule:evenodd;fill:#0071BC;}
	.st2{display:inline;fill-rule:evenodd;clip-rule:evenodd;fill:#FFFFFF;enable-background:new    ;}
	.st3{display:inline;fill-rule:evenodd;clip-rule:evenodd;fill:#FFFFFF;}
	.st4{display:inline;}
	.st5{fill-rule:evenodd;clip-rule:evenodd;fill:#FFFFFF;}
	.st6{fill-rule:evenodd;clip-rule:evenodd;fill:#FFFFFF;filter:url(#Adobe_OpacityMaskFilter);}
	.st7{mask:url(#mask0_1_62_00000057832386348347190980000011280109993099936412_);}
	.st8{fill:#FFFFFF;enable-background:new    ;}
	.st9{fill:none;stroke:#FFFFFF;stroke-width:5;enable-background:new    ;}
	
		.st10{fill-rule:evenodd;clip-rule:evenodd;fill:#FFFFFF;filter:url(#Adobe_OpacityMaskFilter_00000067202357581368801480000013696613353735788978_);}
	.st11{mask:url(#path-1-inside-1_1_100_00000114071426264445108720000016931413677602664074_);fill:#FFFFFF;}
</style>
<g id="Layer_2" class="st0">
	<rect y="0" class="st1" width="100" height="100"/>
</g>
<g id="Layer_1" class="st0">
	<path class="st2" d="M55.5,8.1c0-2.1,1.6-3.9,3.5-3.9h28.8c1.9,0,3.5,1.7,3.5,3.9v32.2c0,2.1-1.6,3.9-3.5,3.9H59
		c-1.9,0-3.5-1.7-3.5-3.9V8.1z M12.1,4.2c-1.9,0-3.5,1.7-3.5,3.9v32.2c0,2.1,1.6,3.9,3.5,3.9H41c1.9,0,3.5-1.7,3.5-3.9V8.1
		c0-2.1-1.6-3.9-3.5-3.9H12.1z M12.1,56.5c-1.9,0-3.5,1.7-3.5,3.9v32.2c0,2.1,1.6,3.9,3.5,3.9H41c1.9,0,3.5-1.7,3.5-3.9V60.4
		c0-2.1-1.6-3.9-3.5-3.9H12.1z M59,56.5c-1.9,0-3.5,1.7-3.5,3.9v32.2c0,2.1,1.6,3.9,3.5,3.9h28.8c1.9,0,3.5-1.7,3.5-3.9V60.4
		c0-2.1-1.6-3.9-3.5-3.9H59z M61.7,63.4h23.4v26.2H61.7V63.4z M85.2,11.1H61.7v26.2h23.4V11.1z M14.8,11.1h23.4v26.2H14.8V11.1z
		 M38.3,63.4H14.8v26.2h23.4V63.4z"/>
</g>
<g id="Layer_3" class="st0">
	<path class="st3" d="M82.4,24.8V8.5c0-1.1-0.5-2.1-1.4-2.7c-0.9-0.6-2-0.6-2.9,0c-0.2,0.2-25.4,15.8-42.5,15.8h-8.7h0
		c-5.5,0-10.6,2.7-14,7.4c-3.4,4.7-4.5,10.8-3.2,16.6c1.4,5.8,5.1,10.5,10.1,12.9l10,31.7c0.6,2.6,2.8,4.5,5.3,4.5
		c0.3,0,0.5,0,0.8-0.1c3.8-0.3,7.5-1.5,10.8-3.6c0.7-0.4,1.4-0.8,1.9-1.4c0.1-0.1,0.2-0.3,0.3-0.4c1.8-2.6,1.8-6.2,0.1-8.9
		c-1-1.8-3.6-8.7-4.1-19.1c16,3.6,33,14.5,33.2,14.6c0.9,0.6,2,0.6,2.9,0c0.9-0.6,1.4-1.6,1.4-2.7V52.6c5.3-1.5,9-6.6,9-12.6v-2.6
		C91.4,31.4,87.7,26.2,82.4,24.8L82.4,24.8z M15,40.8c0-7.2,5.3-13,11.9-13h5.8v26.1h-5.8C20.3,53.8,15,48,15,40.8z M44.3,85.3
		L44,85.5l-0.3,0.2c-0.7,0.5-3.3,2.2-8.4,2.7v-0.2l-8.9-28.1h9.2c1.1,0,2.3,0.1,3.4,0.2c0.3,12.2,3.4,20.6,5.1,23.4l0.1,0.1l0,0
		C44.5,84.2,44.6,84.8,44.3,85.3L44.3,85.3z M76.6,24.4v43.5C69,63.4,52.7,55,38.4,54V27.6c13.8-1.1,30.5-9.6,38.2-13.9V24.4z
		 M85.7,40c0,2.5-1.3,4.8-3.3,6V31.4c2,1.2,3.3,3.5,3.3,6L85.7,40z"/>
</g>
<g id="Layer_4" class="st0">
	<g class="st4">
		<path class="st5" d="M57.9,8.5H41.7c-1.3,0-2.4,1.3-2.4,2.9v77.2c0,1.6,1.1,2.9,2.4,2.9h16.2c1.3,0,2.4-1.3,2.4-2.9V11.4
			C60.3,9.8,59.3,8.5,57.9,8.5z M55.5,85.7H44.1V56.7h11.3V85.7z M55.5,50.9H44.1V14.3h11.3V50.9z M27,43.2H10.8
			c-1.3,0-2.4,1.3-2.4,2.9v42.4c0,1.6,1.1,2.9,2.4,2.9H27c1.3,0,2.4-1.3,2.4-2.9V46.1C29.4,44.5,28.3,43.2,27,43.2z M13.2,85.7h11.3
			V76H13.2V85.7z M24.5,70.2H13.2V49h11.3V70.2z M72.7,43.2h16.2c1.3,0,2.4,1.3,2.4,2.9v42.4c0,1.6-1.1,2.9-2.4,2.9H72.7
			c-1.3,0-2.4-1.3-2.4-2.9V46.1C70.2,44.5,71.3,43.2,72.7,43.2z M86.4,85.7H75.1V76h11.3V85.7z M75.1,70.2h11.3V49H75.1V70.2z"/>
		<defs>
			<filter id="Adobe_OpacityMaskFilter" filterUnits="userSpaceOnUse">
				<feColorMatrix  type="matrix" values="1 0 0 0 0  0 1 0 0 0  0 0 1 0 0  0 0 0 1 0"/>
			</filter>
		</defs>
		<mask maskUnits="userSpaceOnUse" id="mask0_1_62_00000057832386348347190980000011280109993099936412_">
			<path class="st6" d="M57.9,8.5H41.7c-1.3,0-2.4,1.3-2.4,2.9v77.2c0,1.6,1.1,2.9,2.4,2.9h16.2c1.3,0,2.4-1.3,2.4-2.9V11.4
				C60.3,9.8,59.3,8.5,57.9,8.5z M55.5,85.7H44.1V56.7h11.3V85.7z M55.5,50.9H44.1V14.3h11.3V50.9z M27,43.2H10.8
				c-1.3,0-2.4,1.3-2.4,2.9v42.4c0,1.6,1.1,2.9,2.4,2.9H27c1.3,0,2.4-1.3,2.4-2.9V46.1C29.4,44.5,28.3,43.2,27,43.2z M13.2,85.7
				h11.3V76H13.2V85.7z M24.5,70.2H13.2V49h11.3V70.2z M72.7,43.2h16.2c1.3,0,2.4,1.3,2.4,2.9v42.4c0,1.6-1.1,2.9-2.4,2.9H72.7
				c-1.3,0-2.4-1.3-2.4-2.9V46.1C70.2,44.5,71.3,43.2,72.7,43.2z M86.4,85.7H75.1V76h11.3V85.7z M75.1,70.2h11.3V49H75.1V70.2z"/>
		</mask>
		<g class="st7">
		</g>
	</g>
	<path class="st3" d="M91.4,33.6c0-3.7-2.4-6.9-5.9-7.8l-33-8c-0.6-0.1-1.1-0.2-1.7-0.2s-1.1,0.1-1.7,0.2l-33,8
		c-3.5,0.8-5.9,4-5.9,7.8s2.4,6.9,5.9,7.8l6.8,1.6v22.5c0,7,7.7,13.3,27.9,13.3c20.2,0,27.9-6.2,27.9-13.3V43l6.8-1.6
		C89,40.5,91.4,37.3,91.4,33.6L91.4,33.6z M73.7,65.4c0,2.9-7.6,8-22.9,8c-15.2,0-22.9-5-22.9-8V44.2l21.2,5.1
		c0.6,0.1,1.1,0.2,1.7,0.2s1.1-0.1,1.7-0.2l21.1-5.1L73.7,65.4z M51.4,44.1c-0.2,0-0.4,0.1-0.6,0.1c-0.2,0-0.4,0-0.6-0.1l-33-8
		c-1.2-0.3-2-1.4-2-2.6c0-1.2,0.8-2.3,2-2.6l33-8c0.2,0,0.4-0.1,0.6-0.1c0.2,0,0.4,0,0.6,0.1l33,8c1.1,0.3,2,1.4,2,2.6
		c0,1.2-0.8,2.3-2,2.6L51.4,44.1z M83.7,46.6v17.6c0,1.1,0.9,2,1.9,2s1.9-0.9,1.9-2V46.6c0-1.1-0.9-2-1.9-2S83.7,45.5,83.7,46.6z
		 M81.8,77.5c0-2.6,1.7-9.6,3.9-9.6c2.1,0,3.9,6.9,3.9,9.6c0,2.6-1.7,4.8-3.9,4.8C83.5,82.3,81.8,80.2,81.8,77.5z"/>
</g>
<g id="Layer_6" class="st0">
</g>
<g id="Layer_5" class="st0">
	<g class="st4">
		<path class="st8" d="M62.6,38.1c1.2-1.4,3.3-1.6,4.7-0.4c1.5,1.2,1.7,3.2,0.5,4.6L49,64.2c-0.6,0.7-1.4,1.1-2.4,1.2l-0.2,0
			c-0.8,0-1.6-0.3-2.2-0.9L34,55.4c-0.8-0.5-1.3-1.4-1.4-2.3c-0.1-0.9,0.2-1.9,0.9-2.6c0.6-0.7,1.6-1.1,2.5-1.1c1,0,1.9,0.4,2.4,1
			l7.7,6.8L62.6,38.1z"/>
		<circle class="st9" cx="49.8" cy="50" r="38.6"/>
	</g>
</g>
<g id="Layer_7">
	<g>
		<defs>
			
				<filter id="Adobe_OpacityMaskFilter_00000103964634123814698370000005356002450772702097_" filterUnits="userSpaceOnUse" x="4.8" y="1.3" width="92.5" height="99.6">
				<feColorMatrix  type="matrix" values="1 0 0 0 0  0 1 0 0 0  0 0 1 0 0  0 0 0 1 0"/>
			</filter>
		</defs>
		
			<mask maskUnits="userSpaceOnUse" x="4.8" y="1.3" width="92.5" height="99.6" id="path-1-inside-1_1_100_00000114071426264445108720000016931413677602664074_">
			
				<path style="fill-rule:evenodd;clip-rule:evenodd;fill:#FFFFFF;filter:url(#Adobe_OpacityMaskFilter_00000103964634123814698370000005356002450772702097_);" d="
				M69.6,8.8c11.2,0,20.3,9.1,20.3,20.3l0,0c0,10.3-7.7,18.7-17.6,20.1v4.3c0,2.5,0.8,4.9,2.4,6.9l5,6.1c2.1,2.5,2.5,6,1.1,8.9
				c-1.3,2.9-4.3,4.8-7.6,4.8H60.8c-0.3,7.4-6.3,13.4-13.8,13.4c-7.5,0-13.6-6-13.8-13.4H20.7c-3.2,0-6.2-1.9-7.6-4.8
				c-1.4-2.9-1-6.3,1.1-8.9l5-6.1c1.5-2,2.4-4.4,2.4-6.9v-6.6c0-10.3,6.2-19.4,15.5-23.3v-2.2c0-4.3,3.5-7.7,7.7-7.7h4.5
				c2.1,0,3.8,0.8,5.2,2.1C58.1,11.5,63.5,8.8,69.6,8.8z M84.1,29.1c0-8-6.6-14.6-14.6-14.6c-8,0-14.6,6.6-14.6,14.6
				c0,8,6.6,14.6,14.6,14.6C77.5,43.7,84.1,37.1,84.1,29.1z M38.8,80.2c0.2,4.4,3.7,7.8,8.1,7.8l0,0c4.4,0,7.9-3.5,8.2-7.8H38.8z
				 M75.7,73c0.2-0.4,0.7-1.7-0.4-2.9l-5.1-6c-2.3-2.9-3.7-6.7-3.7-10.4v-4.4c-9.8-1.4-17.4-9.9-17.4-20.1c0-2.9,0.6-5.7,1.8-8.3
				c-0.2-0.9-1-1.5-1.9-1.5h-4.5c-1.1,0-2,0.9-2,2v4.2c0,1.2-0.8,2.3-2,2.7c-8.1,2.7-13.6,10.2-13.6,18.7v6.6
				c0,3.8-1.3,7.5-3.7,10.4l-5,6.1c-1.1,1.3-0.5,2.6-0.4,2.9c0.2,0.4,0.9,1.6,2.5,1.6l52.5,0C74.8,74.6,75.6,73.3,75.7,73z
				 M72.4,25.6v-1.2v-2.5c0-1.5-1.2-2.9-2.9-2.9c-1.5,0-2.9,1.2-2.9,2.9v2.5v1.2v0.6h-0.7H65h-2.5c-1.5,0-2.9,1.2-2.9,2.9
				c0,1.6,1.2,2.9,2.9,2.9H65h1.2h0.6v0.6v1.2v2.5c0,1.5,1.2,2.9,2.9,2.9c1.5,0,2.9-1.2,2.9-2.9v-2.5v-1.2v-0.6h0.6h1.2h2.5
				c1.5,0,2.9-1.2,2.9-2.9c0-1.5-1.2-2.9-2.9-2.9h-2.5h-1.2h-0.6V25.6z"/>
		</mask>
		<path class="st11" d="M89.8,29.1l6.2,4.1l1.2-1.9v-2.2H89.8z M89.8,29.1l-6.2-4.1l-1.2,1.9v2.2H89.8z M72.3,49.1l-1-7.4l-6.5,0.9
			v6.5H72.3z M74.7,60.3L68.9,65l0,0L74.7,60.3z M79.7,66.4l5.8-4.8l0,0L79.7,66.4z M80.7,75.3L74,72l0,0.1l0,0.1L80.7,75.3z
			 M60.8,80.1v-7.5h-7.2l-0.3,7.2L60.8,80.1z M33.1,80.1l7.5-0.3l-0.3-7.2h-7.2V80.1z M13.1,75.3l6.7-3.3l0,0L13.1,75.3z M14.2,66.4
			l-5.8-4.8l0,0.1l0,0.1L14.2,66.4z M19.2,60.3L25,65L25,65l0.1-0.1L19.2,60.3z M37.1,23.5l2.9,6.9l4.6-1.9v-5H37.1z M54.4,15.7
			l-5.1,5.5l5.7,5.3l5.1-5.8L54.4,15.7z M38.8,80.2v-7.5H31l0.3,7.8L38.8,80.2z M55.1,80.2l7.5,0.5l0.5-7.9h-8V80.2z M75.4,70
			l-5.7,4.8l0,0L75.4,70z M75.7,73l-6.7-3.4l0,0L75.7,73z M70.3,64l-5.9,4.6l0.1,0.1l0.1,0.1L70.3,64z M66.6,49.2h7.5v-6.5l-6.4-0.9
			L66.6,49.2z M51,20.9l6.8,3.1l1-2.2l-0.5-2.4L51,20.9z M40.8,28.2L38.6,21l-0.1,0l-0.1,0L40.8,28.2z M23.6,63.9l5.8,4.8l0,0
			L23.6,63.9z M18.6,70l5.7,4.9l0-0.1l0-0.1L18.6,70z M18.2,73l6.7-3.3l0,0L18.2,73z M20.7,74.6l0-7.5h0V74.6z M73.2,74.6l0,7.5h0
			V74.6z M66.7,26.2v7.5h7.5v-7.5H66.7z M66.7,31.9h7.5v-7.5h-7.5V31.9z M72.4,31.9v-7.5H65v7.5H72.4z M72.4,26.2H65v7.5h7.5V26.2z
			 M97.3,29.1c0-15.3-12.5-27.7-27.7-27.7v15c7,0,12.8,5.7,12.8,12.8H97.3z M96.1,33.2L96.1,33.2l-12.5-8.3l0,0L96.1,33.2z
			 M73.3,56.6c13.5-1.8,24.1-13.4,24.1-27.5h-15c0,6.4-4.8,11.8-11.1,12.7L73.3,56.6z M79.7,53.4v-4.3h-15v4.3H79.7z M80.5,55.5
			c-0.4-0.5-0.7-1.2-0.7-2.1h-15c0,4.1,1.3,8.2,4.1,11.6L80.5,55.5z M85.4,61.6l-5-6.1L68.9,65l5,6.1L85.4,61.6z M87.5,78.5
			c2.7-5.6,1.9-12.2-2-16.9l-11.6,9.5c0.2,0.3,0.3,0.6,0.1,0.9L87.5,78.5z M73.2,87.6c6.2,0,11.8-3.5,14.4-9.2l-13.6-6.2
			c-0.1,0.2-0.3,0.4-0.8,0.4V87.6z M60.8,87.6h12.4v-15H60.8V87.6z M46.9,101c11.6,0,20.9-9.2,21.3-20.6l-15-0.5
			c-0.1,3.4-2.9,6.2-6.3,6.2V101z M25.6,80.4C26,91.7,35.3,101,46.9,101V86c-3.4,0-6.2-2.7-6.3-6.2L25.6,80.4z M20.7,87.6h12.4v-15
			H20.7V87.6z M6.4,78.5c2.6,5.5,8.2,9,14.3,9v-15c-0.3,0-0.6-0.2-0.8-0.6L6.4,78.5z M8.3,61.7c-3.7,4.7-4.7,11.2-1.9,16.8L19.9,72
			c-0.1-0.2-0.1-0.3-0.1-0.4c0-0.1,0.1-0.3,0.3-0.6L8.3,61.7z M13.4,55.5l-5,6.1L20,71.1l5-6.1L13.4,55.5z M14.1,53.4
			c0,0.7-0.3,1.5-0.8,2.3l11.8,9.2c2.4-3.2,4-7.2,4-11.4H14.1z M14.1,46.8v6.6h15v-6.6H14.1z M34.2,16.6
			c-12.1,5.1-20.1,16.9-20.1,30.2h15c0-7.2,4.3-13.6,10.9-16.4L34.2,16.6z M29.6,21.3v2.2h15v-2.2H29.6z M44.8,6.1
			c-8.3,0-15.2,6.7-15.2,15.2h15c0,0,0-0.1,0-0.1c0,0,0,0,0-0.1c0,0,0,0,0.1,0c0,0,0,0,0.1,0V6.1z M49.2,6.1h-4.5v15h4.5V6.1z
			 M59.5,10.2c-2.6-2.4-6.2-4.1-10.3-4.1v15c0,0,0,0,0,0c0,0,0,0,0,0c0,0,0,0,0.1,0L59.5,10.2z M69.6,1.3c-8.3,0-15.8,3.7-20.8,9.4
			l11.3,9.8c2.3-2.6,5.7-4.3,9.5-4.3V1.3z M69.5,21.9c3.9,0,7.1,3.2,7.1,7.1h15c0-12.2-10-22.1-22.1-22.1V21.9z M62.4,29.1
			c0-3.9,3.2-7.1,7.1-7.1v-15c-12.2,0-22.1,10-22.1,22.1H62.4z M69.5,36.2c-3.9,0-7.1-3.2-7.1-7.1h-15c0,12.2,10,22.1,22.1,22.1
			V36.2z M76.6,29.1c0,3.9-3.2,7.1-7.1,7.1v15c12.2,0,22.1-10,22.1-22.1H76.6z M46.9,80.5c-0.2,0-0.4-0.1-0.5-0.2
			c-0.1-0.1-0.2-0.2-0.2-0.4l-15,0.6c0.3,8.4,7.3,14.9,15.6,14.9V80.5z M46.9,80.5L46.9,80.5v15l0,0V80.5z M47.7,79.7
			c0,0.2-0.1,0.4-0.3,0.5c-0.2,0.1-0.3,0.2-0.5,0.2v15c8.4,0,15.2-6.7,15.7-14.8L47.7,79.7z M38.8,87.7h16.3v-15H38.8V87.7z
			 M69.7,74.9c-0.9-1-1.2-2.3-1.2-3.4c0-0.9,0.3-1.5,0.5-1.9l13.4,6.7c0.6-1.1,2.8-6.4-1.4-11.2L69.7,74.9z M64.6,68.9l5.1,6
			l11.4-9.7l-5.1-6L64.6,68.9z M59.2,53.6c0,5.5,1.9,10.8,5.3,15.1l11.8-9.3c-1.3-1.7-2.1-3.8-2.1-5.8H59.2z M59.2,49.2v4.4h15v-4.4
			H59.2z M41.8,29.2c0,14,10.4,25.5,23.8,27.5l2.2-14.8c-6.2-0.9-11-6.3-11-12.7H41.8z M44.2,17.8c-1.6,3.5-2.4,7.3-2.4,11.4h15
			c0-1.9,0.4-3.6,1.1-5.2L44.2,17.8z M49.2,26.8c-2.5,0-4.9-1.7-5.5-4.5l14.7-3c-0.9-4.5-4.9-7.5-9.2-7.5V26.8z M44.7,26.8h4.5v-15
			h-4.5V26.8z M50.2,21.3c0,3.1-2.5,5.5-5.5,5.5v-15c-5.2,0-9.4,4.2-9.4,9.4H50.2z M50.2,25.5v-4.2h-15v4.2H50.2z M43,35.3
			c4.3-1.3,7.3-5.3,7.3-9.8h-15c0-2,1.3-3.9,3.3-4.5L43,35.3z M34.7,46.9c0-5.3,3.4-10,8.4-11.6l-4.7-14.2
			c-11.2,3.7-18.7,14-18.7,25.8H34.7z M34.7,53.5v-6.6h-15v6.6H34.7z M29.3,68.7c3.6-4.3,5.4-9.7,5.4-15.2h-15c0,2.2-0.7,4.2-2,5.7
			L29.3,68.7z M24.3,74.8l5-6.1l-11.6-9.5l-5,6.1L24.3,74.8z M24.9,69.6c0.2,0.4,0.5,1,0.5,1.9c0,1.1-0.3,2.4-1.1,3.4l-11.4-9.7
			C8.7,70,11,75.2,11.5,76.3L24.9,69.6z M20.7,67.1c1.3,0,2.5,0.6,3.2,1.2c0.6,0.5,0.9,1.1,1,1.3l-13.4,6.6c0.4,0.9,3,5.8,9.2,5.8
			V67.1z M73.2,67.1l-52.5,0l0,15l52.5,0L73.2,67.1z M69,69.6c0.1-0.2,0.4-0.8,1-1.3c0.7-0.6,1.8-1.2,3.2-1.2v15
			c6.2,0,8.8-4.9,9.2-5.7L69,69.6z M65,24.4v1.2h15v-1.2H65z M65,21.9v2.5h15v-2.5H65z M69.6,26.6c-2.7,0-4.6-2.2-4.6-4.6h15
			c0-5.5-4.4-10.3-10.3-10.3V26.6z M74.2,21.9c0,2.7-2.2,4.6-4.6,4.6v-15c-5.5,0-10.3,4.4-10.3,10.3H74.2z M74.2,24.4v-2.5h-15v2.5
			H74.2z M74.2,25.6v-1.2h-15v1.2H74.2z M74.2,26.2v-0.6h-15v0.6H74.2z M66.1,33.7h0.7v-15h-0.7V33.7z M65,33.7h1.1v-15H65V33.7z
			 M62.5,33.7H65v-15h-2.5V33.7z M67.1,29.1c0,2.7-2.2,4.6-4.6,4.6v-15c-5.5,0-10.3,4.4-10.3,10.3H67.1z M62.5,24.4
			c2.5,0,4.6,2.1,4.6,4.6h-15c0,5.7,4.6,10.3,10.3,10.3V24.4z M65,24.4h-2.5v15H65V24.4z M66.1,24.4H65v15h1.2V24.4z M66.7,24.4
			h-0.6v15h0.6V24.4z M74.2,32.5v-0.6h-15v0.6H74.2z M74.2,33.7v-1.2h-15v1.2H74.2z M74.2,36.2v-2.5h-15v2.5H74.2z M69.6,31.6
			c2.7,0,4.6,2.2,4.6,4.6h-15c0,5.5,4.4,10.3,10.3,10.3V31.6z M65,36.2c0-2.7,2.2-4.6,4.6-4.6v15c5.5,0,10.3-4.4,10.3-10.3H65z
			 M65,33.7v2.5h15v-2.5H65z M65,32.5v1.2h15v-1.2H65z M65,31.9v0.6h15v-0.6H65z M73.1,24.4h-0.6v15h0.6V24.4z M74.2,24.4h-1.2v15
			h1.2V24.4z M76.7,24.4h-2.5v15h2.5V24.4z M72.1,29.1c0-2.7,2.2-4.6,4.6-4.6v15c5.5,0,10.3-4.4,10.3-10.3H72.1z M76.7,33.7
			c-2.7,0-4.6-2.2-4.6-4.6h15c0-5.5-4.4-10.3-10.3-10.3V33.7z M74.2,33.7h2.5v-15h-2.5V33.7z M73.1,33.7h1.2v-15h-1.2V33.7z
			 M72.4,33.7h0.6v-15h-0.6V33.7z M65,25.6v0.6h15v-0.6H65z"/>
	</g>
</g>
</svg>
