<?xml version="1.0" encoding="utf-8"?>
<!-- Generator: Adobe Illustrator 26.2.1, SVG Export Plug-In . SVG Version: 6.00 Build 0)  -->
<svg version="1.1" id="Layer_1" xmlns="http://www.w3.org/2000/svg" xmlns:xlink="http://www.w3.org/1999/xlink" x="0px" y="0px"
	 viewBox="0 0 40 40" style="enable-background:new 0 0 40 40;" xml:space="preserve">
<style type="text/css">
	.st0{fill:#009BC9;}
</style>
<path class="st0" d="M20.8,21.2C20.6,21,20.4,21,20.2,21s-0.5,0.1-0.7,0.2c-0.1,0.1-3.2,2.2-3.2,5.5c0,1,0.4,2,1.1,2.7
	c0.7,0.7,1.7,1.1,2.7,1.1c1,0,2-0.4,2.7-1.1c0.7-0.7,1.1-1.7,1.1-2.7C24,23.4,21,21.3,20.8,21.2z M20.2,28.1c-0.4,0-0.8-0.2-1.1-0.4
	c-0.3-0.3-0.4-0.7-0.4-1.1c0.1-1.1,0.6-2.2,1.5-2.9c0.9,0.7,1.4,1.8,1.5,2.9c0,0.4-0.2,0.8-0.4,1.1C20.9,28,20.6,28.1,20.2,28.1z
	 M27.8,15.3c-0.7-1.7-2-3.1-3.6-4c-1.6-0.9-3.4-1.2-5.2-1c-1.8,0.3-3.5,1.1-4.8,2.4c-1.3,1.3-2.1,3-2.3,4.8
	c-1.1,0.3-2.1,0.9-2.7,1.8c-0.7,0.9-1,2-0.9,3.2c0.1,1.1,0.6,2.2,1.4,3c0.8,0.8,1.9,1.3,3,1.4h0.1c0.3,0,0.6-0.1,0.8-0.3
	c0.2-0.2,0.4-0.5,0.4-0.8c0-0.2,0-0.3-0.1-0.5c0-0.1-0.1-0.3-0.2-0.4c-0.1-0.1-0.2-0.2-0.4-0.3c-0.1-0.1-0.3-0.1-0.5-0.1
	c-0.6-0.1-1.1-0.3-1.6-0.8c-0.4-0.4-0.6-1-0.6-1.6c0-0.6,0.3-1.2,0.7-1.7c0.4-0.4,1.1-0.7,1.7-0.7c0.3,0,0.6-0.1,0.8-0.3
	c0.2-0.2,0.3-0.5,0.3-0.8c0-1.4,0.5-2.8,1.4-3.9s2.2-1.8,3.6-2c1.4-0.2,2.8,0,4,0.8c1.2,0.7,2.1,1.9,2.6,3.2
	c0.1,0.2,0.2,0.4,0.4,0.5c0.2,0.1,0.4,0.2,0.6,0.3c0.8,0.1,1.5,0.5,2,1.1c0.5,0.6,0.8,1.3,0.9,2.1c0.1,0.8-0.1,1.6-0.6,2.2
	c-0.4,0.7-1.1,1.2-1.8,1.4c-0.3,0.1-0.5,0.3-0.7,0.6c-0.1,0.3-0.2,0.6-0.1,0.9c0.1,0.3,0.3,0.5,0.6,0.7c0.3,0.1,0.6,0.2,0.9,0.1
	c1.2-0.4,2.2-1.2,3-2.2c0.7-1,1.1-2.3,1.1-3.5c0-1.3-0.4-2.5-1.2-3.5C30.1,16.4,29,15.6,27.8,15.3z"/>
</svg>
